<svg width="982" height="192" viewBox="0 0 982 192" fill="none" xmlns="http://www.w3.org/2000/svg">
<g clip-path="url(#clip0_122_142)">
<path d="M166.969 29.0122C170.335 29.1544 170.782 30.8431 169.671 33.6957C168.539 36.6031 168.662 36.651 171.579 39.5379C174.972 36.3629 178.731 35.724 183.633 36.047C187.856 36.3252 192.955 35.0475 197.011 33.3816C205.389 29.941 214.172 30.125 222.755 28.7044C228.402 27.7696 229.377 27.0448 228.769 21.2912C228.565 19.3659 229.553 17.7642 229.676 15.913C227.92 14.3478 225.838 15.3299 223.95 15.0739C222.333 14.8545 220.169 15.1026 219.855 13.035C219.139 8.31925 216.114 9.05096 213.167 10.0286C209.752 11.1613 206.656 13.1714 202.899 10.4679C201.357 9.35771 199.485 11.1631 197.945 12.1163C194.567 14.2071 191.798 13.167 189.108 10.1783C193.429 11.7432 196.68 8.15553 200.023 8.10029C206.408 7.99478 212.699 7.53319 219.014 6.80325C219.726 6.72096 221.128 7.24165 221.18 7.62405C222.054 13.9909 227.12 11.6952 230.703 12.2518C233.416 12.6731 236.187 12.7222 239.184 12.9566C238.173 15.3415 236.02 15.2819 234.62 16.3045C232.29 18.0063 230.606 19.6359 232.33 22.9038C234.05 26.1639 232.97 28.2869 229.333 29.818C223.163 32.4159 216.508 32.9093 210.17 34.8679C199.895 38.0432 189.467 40.7686 179.346 44.4548C174.034 46.3897 171.124 51.4823 171.8 56.9062C172.994 58.0579 174.326 56.067 175.758 57.257C175.85 59.839 172.154 60.5789 172.392 63.3915C174.894 64.3723 176.131 63.1582 176.648 60.848C177.618 56.5021 180.014 56.8205 183.352 58.371C188.076 60.5653 192.998 62.3272 198.775 61.8247C197.441 59.5369 194.199 62.0053 193.82 58.5027C195.365 56.7938 197.62 55.353 200.087 55.9643C208.416 58.0283 215.771 55.3297 223.098 51.9948C226.218 50.5747 228.917 49.5681 232.831 51.2926C236.497 52.9077 241.255 52.0427 245.147 52.2488C246.899 53.6667 244.627 55.0126 245.811 56.2687C247.841 57.0084 249.959 56.6673 252.062 56.1193C255.146 55.3157 257.846 56.3023 259.691 58.5975C261.641 61.0235 260.248 63.5922 259.054 66.0654C256.535 71.2841 252.365 75.0355 248.125 78.6453C248.22 80.7365 250.641 80.2435 251.256 81.8497C251.159 82.1795 251.164 82.7692 250.872 83.0647C248.673 85.287 245.829 85.8404 242.997 85.1743C230.384 82.2082 218.372 85.9496 206.847 89.6926C201.478 91.4364 194.686 95.1506 194.132 103.059C193.981 105.209 192.176 104.831 190.863 105.361C185.047 107.709 179.297 110.205 175.648 115.743C174.716 117.156 173.982 118.63 174.674 120.778C178.768 119.461 179.391 114.09 184.017 112.729C185.259 121.01 179.332 124.345 173.994 128.465C178.092 130.7 181.549 129.463 184.413 127.346C191.805 121.881 200.198 121.269 208.029 124.292C212.246 125.919 216.416 127.284 220.745 128.518C224.69 129.643 224.319 131.84 221.327 133.683C215.131 127.423 207.552 131.694 201.028 130.98C200.174 128.031 202.991 128.345 203.721 126.698C197.73 123.565 192.579 125.899 187.476 128.94C190.319 128.844 193.205 127.59 196.198 129.386C194.778 133.609 190.125 132.129 187.415 134.518C197.379 140.549 207.057 135.306 216.929 134.072C217.319 136.652 215.749 137.174 214.156 137.591C205.525 139.853 196.866 142.014 188.266 144.388C186.39 144.906 185.576 143.423 184.215 143.026C182.166 142.428 180.179 142.391 178.495 143.692C176.706 145.073 177.336 147.011 177.944 148.755C181.391 158.65 179.384 169.277 182.106 179.324C182.964 182.488 185.433 185.038 185.606 188.97C182.551 188.155 181.579 185.958 181.009 183.926C179.123 177.206 177.482 170.371 177.724 163.342C177.906 158.041 177.024 152.932 174.91 148.255C172.641 143.236 172.864 139.307 177.657 136.225C176.62 134.731 174.394 135.475 174.042 133.574C174.901 132.095 176.497 133.058 177.894 132.283C176.381 132.199 175.153 132.14 173.926 132.059C170.566 131.838 168.931 130.214 170.04 126.807C170.627 125.004 170.44 123.188 170.7 121.401C171.556 115.502 172.794 109.821 179.8 107.938C181.235 107.552 182.95 106.907 183.681 104.541C181.699 105.513 180.115 106.317 178.505 107.068C177.302 107.629 176.008 108.364 174.765 107.343C173.347 106.18 173.73 104.621 174.312 103.206C175.637 99.9846 177.088 96.8147 178.402 93.589C178.628 93.0337 178.434 92.307 178.434 91.6311C171.866 93.9871 169.161 97.9237 170.618 105.466C171.706 111.105 167.82 114.043 165.656 117.911C164.669 119.674 162.821 119.217 161.705 117.324C159.27 113.195 159.147 108.767 160.326 104.329C160.987 101.842 161.538 99.9425 159.559 97.4984C157.166 94.5421 158.42 90.9111 159.544 87.527C161.471 81.7265 163.242 75.8739 165.456 68.8441C162.798 70.8137 161.41 72.334 161.459 74.266C161.524 76.8364 159.947 77.92 158.17 78.7417C155.936 79.7754 154.982 77.6598 153.745 76.4135C152.938 75.6011 152.308 74.5258 150.733 74.6458C146.406 76.9227 153.483 83.1844 146.99 84.7569C157.435 91.119 154.997 101.9 156.862 111.056C157.242 112.924 156.346 115.157 157.224 116.964C160.177 123.038 158.087 128.553 155.815 134.164C154.883 136.464 154.053 138.912 154.285 141.447C155.353 153.147 151.163 164.441 151.767 176.143C152.063 181.873 148.32 186.465 146.445 191.887C144.385 190.312 144.884 189.09 145.399 188.133C149.189 181.091 149.128 173.466 148.903 165.814C148.756 160.793 149.592 155.915 150.393 150.97C151.507 144.093 151.141 137.36 145.354 132.059C143.01 129.912 141.864 127 141.569 123.615C140.817 114.977 130.676 109.655 123.044 113.76C119.359 115.742 115.291 116.856 113.104 121.392C111.967 123.752 108.098 124.673 104.976 124.056C95.718 122.225 86.3884 123.662 77.1051 123.23C75.6173 123.161 73.7939 123.791 72.686 123.142C66.2825 119.39 60.3305 120.642 54.2941 124.006C52.1097 125.223 49.5513 125.382 47.01 125.469C43.9786 125.574 41.7216 125.865 41.4613 121.403C41.2103 117.1 34.9937 114.39 29.2589 115.611C24.5143 116.621 19.7663 117.713 14.9541 116.903C10.2381 116.109 5.61642 114.754 0.468506 113.531C3.47653 106.755 10.9856 108.505 14.8611 104.666C14.2328 102.499 11.7088 103.014 10.9044 100.391C14.4163 98.2551 17.4877 95.0557 22.3576 94.5339C36.3791 93.0314 50.3928 91.4426 64.3886 89.7181C70.0168 89.0246 75.0966 86.1604 80.7415 85.2681C85.9372 84.4468 90.1652 85.5046 94.7476 88.3649C98.9241 90.9719 102.515 95.7071 108.797 94.284C111.229 93.7331 113.942 95.1225 116.308 96.5314C120.227 98.8657 124.218 100.218 129.111 99.2435C133.471 98.3751 136.564 101.572 138.958 104.921C142.566 109.967 146.988 113.672 154.101 114.949C155.315 108.305 153.545 102.349 151.735 96.4361C151.369 95.2418 149.856 95.0753 148.721 94.9722C141.264 94.2948 134.418 90.6098 126.76 90.7564C121.582 90.8556 116.585 89.8032 111.854 87.3286C107.629 85.1193 103.107 83.4795 98.3959 81.4505C99.3296 79.0062 101.3 76.3542 97.5266 74.5755C95.0758 73.4203 91.9772 73.4272 90.0088 70.7301C92.2511 67.9612 95.1392 67.6393 98.1354 67.6134C104.289 67.5603 110.432 67.6978 116.6 67.3676C121.133 67.1251 125.607 69.6926 128.676 72.5434C133.688 77.1996 140.212 77.4283 145.675 81.2907C147.952 74.0864 141.225 72.3485 139.205 67.7066C143.839 66.4239 142.699 63.6773 141.166 60.7747C140.627 59.7532 140.257 58.6252 139.932 57.5104C139.019 54.3846 140.226 49.9302 137.056 48.3324C131.845 45.7058 126.72 42.4135 120.212 43.0768C115.146 43.5932 110.316 44.0057 105.261 45.4874C100.771 46.8038 94.4981 48.6041 89.8592 43.8047C89.4664 43.3982 88.5345 43.1224 88.0143 43.2891C82.1717 45.1618 81.7253 38.3873 77.9145 37.0574C79.9135 32.1227 78.6997 26.734 80.1013 21.7655C80.3874 20.7514 82.4688 20.2438 83.8433 19.4314C82.482 18.3081 80.9715 19.0456 79.6047 18.8784C78.0527 18.6886 76.3067 18.5503 76.2123 16.6792C76.1242 14.9326 77.6393 14.2297 79.2529 14.0026C80.5383 13.8217 81.8233 13.6383 83.4771 13.4036C82.0647 11.7129 80.4539 13.7382 79.2426 12.2973C79.1949 12.0845 78.901 11.5667 79.0189 11.1719C79.8746 8.30662 82.2103 7.0772 84.7766 6.12115C92.5254 3.23444 100.399 4.04035 108.255 5.43805C111.357 5.98985 114.404 6.88063 117.447 7.72052C126.7 10.2744 135.36 5.65577 143.991 6.13222C145.64 3.92811 144.179 1.93515 145.117 0.272416C150.92 -1.17548 152.749 6.37712 157.484 6.60347C159.299 4.84597 156.913 4.05271 157.777 2.95568C167.965 3.95508 178.158 4.95484 188.35 5.95458C188.348 6.38282 188.346 6.81106 188.343 7.2393C181.816 6.40573 175.469 10.4464 168.851 7.07877C167.785 6.53632 166.206 5.76824 165.589 6.62007C161.513 12.2473 156.392 7.76807 151.823 8.22182C144.82 8.9172 137.499 8.33414 130.866 10.231C125.101 11.8797 120.104 10.8304 114.806 9.82938C112.035 9.30586 109.29 8.52279 106.621 7.60336C99.4471 5.13221 93.9541 8.47145 89.4168 13.2033C87.7647 14.9262 88.7822 18.5068 88.976 20.9528C88.1366 22.4777 86.8246 22.3161 85.753 22.6379C83.993 23.1663 81.8959 23.4177 82.2773 25.9938C82.6253 28.3448 84.4806 29.2243 86.5677 29.521C89.6086 29.9534 92.792 28.4887 96.3784 30.3247C91.3521 32.5487 85.8638 31.0947 81.1231 34.1769C84.1783 36.0063 87.902 33.2041 90.1219 36.2262C89.6649 38.3817 87.2794 38.0938 86.5191 39.583C90.1594 40.348 90.1594 40.348 97.1898 35.561C98.2217 38.8843 94.5483 39.9329 94.0862 42.3723C97.8782 44.3555 101.567 42.979 103.496 38.8426C103.98 37.8063 104.192 36.5683 104.893 35.7265C105.966 34.4391 107.417 33.3532 109.255 34.0033C111.298 34.7261 109.606 36.5812 110.129 37.8824C113.453 35.8825 116.465 33.4837 120.677 32.5C120.884 36.4797 123.125 37.3981 126.638 37.4156C132.192 37.4433 137.621 37.6955 141.99 33.354C142.925 32.4248 144.23 31.9707 145.815 32.6552C146.407 36.1535 142.623 38.0999 142.891 41.6032C145.898 42.3697 148.087 38.3506 151.525 40.0674C154.378 41.4928 152.765 46.775 157.441 46.368C158.41 44.4418 155.293 43.2094 156.716 41.3401C161.578 41.1041 166.276 44.9043 167.808 50.6843C169.843 46.2902 170.912 42.4695 166.677 39.011C163.968 36.7985 164.77 32.7377 161.969 30.834C163.441 28.7483 165.266 30.2691 166.739 29.1501C166.996 29.0004 166.969 29.0122 166.969 29.0122ZM115.586 104.373C118.802 105.671 121.837 107.587 125.481 107.474C131.071 107.3 142.055 113.348 142.886 118.455C144.064 125.705 147.656 131.185 152.332 136.259C153.292 133.426 154.257 130.447 155.311 127.5C157.099 122.504 156.25 119.27 151.368 117.394C144.714 114.839 139.754 110.506 135.457 105.072C133.255 102.286 130.664 100.905 126.753 102.068C122.963 103.195 118.905 103.417 114.471 103.668C111.529 102.76 112.213 101.147 113.795 99.6109C111.887 96.9414 109.353 97.1295 106.841 97.4631C99.5728 98.428 93.0182 95.4878 89.1338 90.3421C86.1596 86.4021 83.9623 87.6365 81.0032 88.153C73.6272 89.4404 66.6739 92.9771 59.1644 93.1796C48.011 93.4804 37.1918 96.6562 26.0204 96.5321C24.7616 96.5181 23.3221 96.8728 23.1599 98.1905C26.3872 104.161 32.2152 99.641 36.4789 102.076C26.7121 105.732 17.2463 109.769 6.89469 111.092C9.6413 112.32 12.0718 110.259 15.0678 110.926C15.0027 114.976 18.0853 114.593 20.873 114.628C23.5964 114.663 26.1235 113.738 28.5858 112.746C36.7946 109.437 36.7823 109.401 42.4079 116.092C43.1576 116.983 44.027 117.816 44.5875 118.818C47.2859 123.64 51.1947 122.915 54.7439 120.524C59.3213 117.441 64.2229 117.362 69.1205 118.3C71.966 118.846 74.5949 118.936 77.4008 118.554C81.3334 118.019 85.183 116.607 89.2572 117.33C90.1152 117.482 90.8718 117.08 91.4105 116.348C93.0835 114.074 91.0285 109.664 87.0954 106.691C84.2572 104.546 82.5606 105.657 81.2138 108.385C80.5238 109.783 79.5306 111.006 77.9329 111.208C72.415 111.906 66.881 112.476 61.3532 113.095C64.512 110.004 68.3211 109.698 72.1934 109.663C74.5501 109.642 76.8071 109.611 78.511 107.478C83.4243 101.326 89.6221 101.163 92.504 108.495C95.3335 115.695 102.119 114.761 106.441 118.386C107.124 118.958 108.482 118.649 108.619 117.922C109.582 112.781 114.932 112.176 117.938 109.407C115.601 105.642 111.034 108.895 108.77 105.626C110.67 103.923 113.071 104.826 115.586 104.373ZM215.084 72.1348C216.923 72.8173 216.909 74.6923 217.664 76.389C220.063 74.7911 222.483 74.0365 225.16 75.5818C228.417 77.4616 231.166 76.9339 233.181 73.573C233.296 73.3822 233.777 73.4115 234.07 73.3425C235.906 73.8541 234.554 76.3292 235.26 76.549C247.203 76.7661 252.43 69.1371 257.585 61.2919C256.552 60.3048 255.816 60.5436 255.006 60.8891C250.858 62.6575 246.941 62.4651 243.451 59.3438C242.503 58.4955 241.236 58.6892 240.242 58.2421C235.195 55.9721 230.244 54.4968 225.145 58.1094C224.723 58.4084 223.831 58.1673 223.193 58.0192C216.653 56.4988 210.812 58.7294 204.355 61.3959C206.191 61.9724 208.068 61.8433 207.685 64.6189C203.405 65.6778 198.868 66.1401 194.351 65.1458C189.73 64.1284 185.215 62.6271 180.627 61.33C179.488 63.7203 180.383 67.3144 176.477 67.4492C173.893 67.5384 171.303 67.4661 168.077 67.4661C169.699 75.966 176.809 79.6468 181.118 85.3899C183.579 83.4233 185.514 80.9893 188.006 80.0715C193.095 78.1978 198.537 77.3854 202.547 73.1084C203.329 72.2748 205.722 72.0356 206.824 72.5973C209.66 74.0437 211.963 72.8588 215.084 72.1348ZM147.825 70.0705C148.638 70.4943 148.933 71.7242 150.263 71.5802C149.369 67.5571 144.216 64.6017 147.024 59.8311C149.122 56.2654 151 52.1663 156.695 51.5225C154.482 55.9636 148.867 57.9661 149.407 62.7333C149.926 67.3178 153.536 70.7032 156.32 74.3972C162.96 67.8677 164.024 63.8941 161.046 58.0314C165.154 55.2614 165.158 52.4546 161.092 47.4217C157.078 49.6775 152.841 51.2597 148.319 52.4226C148.02 48.3664 143.742 44.707 139.654 44.5598C141.671 53.0793 143.667 61.6054 147.825 70.0705ZM118.839 70.2554C112.567 70.742 106.203 69.9046 99.7958 71.0456C100.565 73.635 101.889 75.0499 103.892 75.7137C106.696 76.6432 108.391 78.1832 109.763 81.1125C111.074 83.9137 114.586 86.191 117.958 85.1637C121.614 84.0498 124.875 81.6379 127.748 80.0933C127.698 73.9248 123.059 72.7411 118.839 70.2554ZM169.074 95.7026C170.043 91.8132 174.557 91.1689 176.655 87.7319C172.755 84.5116 170.125 80.3687 166.282 75.9931C164.382 81.9888 162.685 86.9693 161.263 92.0268C160.761 93.8132 161.241 95.7977 162.749 97.0685C164.97 98.9398 164.812 100.694 163.543 103.148C161.866 106.389 161.49 109.879 163.816 113.256C167.524 110.883 168.573 107.989 167.687 104.122C167.086 101.497 167.464 98.8249 169.074 95.7026ZM201.364 86.6858C205 85.5601 202.793 79.9864 207.506 79.6408C205.277 78.432 203.824 77.098 201.64 78.8449C197.597 82.079 192.865 84.2294 188.226 86.4902C181.575 89.7317 180.755 96.1375 178.73 103.161C183.886 100.625 189.432 100.222 188.751 93.3969C188.671 92.5969 189.564 91.4815 190.298 91.7545C194.742 93.4066 194.908 89.269 196.599 87.2516C197.902 85.6964 198.745 83.5639 201.042 83.5669C202.366 85.0375 199.645 85.7322 201.364 86.6858ZM227.497 80.8299C233.511 79.6692 239.237 83.0329 245.687 82.3856C244.251 80.8383 243.323 79.847 241.53 79.9401C235.083 80.275 228.656 80.2008 222.536 77.6855C221.472 77.248 220.615 77.6842 219.764 78.2572C216.969 80.1405 214.167 82.0146 211.368 83.8922C216.441 82.5741 221.003 79.4683 227.497 80.8299ZM182.078 136.478C181.253 136.909 180.184 137.131 180.407 138.635C182.179 139.605 183.971 140.55 186.023 138.962C185.554 136.967 184.016 136.817 182.078 136.478Z" fill="black"/>
<path d="M665.419 135.031C661.231 143.13 653.455 145.091 645.403 147.731C653.251 157.75 659.041 168.655 667.883 177.356C671.999 181.407 677.196 181.938 682.899 181.799C682.398 183.036 682.324 183.743 682.04 183.841C672.15 187.262 659.85 183.803 653.036 175.624C647.379 168.835 642.331 161.587 637.592 154.141C635.201 150.384 632.141 148.707 627.662 148.814C621.176 148.968 614.679 148.731 608.189 148.591C604.043 148.502 601.545 149.695 601.943 154.592C602.347 159.56 602.02 164.582 602.275 169.567C602.686 177.611 605.27 180.189 613.14 180.914C614.737 181.062 616.551 180.719 617.988 183.351C603.663 183.351 589.798 183.351 575.397 183.351C577.271 180.146 579.703 181.019 581.687 180.877C586.681 180.517 589.64 178.043 590.786 173.173C591.323 170.889 591.694 168.628 591.689 166.274C591.66 151.453 591.721 136.632 591.665 121.811C591.623 110.75 589.247 107.935 578.542 105.763C577.783 105.609 577.077 105.19 576.12 104.803C577.173 102.232 579.177 102.805 580.819 102.8C597.471 102.752 614.123 102.714 630.775 102.752C637.777 102.768 644.744 103.359 651.48 105.416C665.59 109.726 670.903 120.815 665.419 135.031ZM630.312 143.635C634.839 143.772 639.279 143.156 643.562 141.732C652.319 138.819 656.232 133.102 655.809 124.102C655.432 116.065 651.37 111.131 642.262 109.309C630.773 107.01 619.08 108.191 607.482 108.621C603.784 108.758 602.213 111.67 602.194 115.307C602.152 123.287 602.173 131.269 601.989 139.246C601.906 142.873 603.652 143.735 606.906 143.67C614.385 143.521 621.87 143.627 630.312 143.635Z" fill="black"/>
<path d="M760.963 133.952C759.181 140.983 761.911 147.857 760.196 154.531C759.381 154.374 758.844 154.391 758.795 154.244C755.787 145.274 748.836 143.689 740.509 144.058C733.525 144.367 726.512 144.251 719.519 144.06C715.766 143.958 714.043 145.039 714.215 149.145C714.502 155.965 714.23 162.807 714.355 169.636C714.46 175.395 716.264 178.036 721.817 178.349C733.944 179.033 746.121 179.29 758.246 178.176C766.374 177.429 771.991 172.802 775.952 165.852C776.799 164.365 777.125 162.297 779.276 161.797C782.093 172.114 773.466 184.251 763.176 184.144C745.523 183.96 727.864 184.77 710.214 183.556C705.429 183.227 700.577 183.984 695.753 184.079C694.052 184.112 692.016 184.757 690.799 182.668C691.844 180.526 693.948 181.154 695.62 180.818C701.616 179.614 703.86 177.434 703.898 171.462C704.018 152.802 704.002 134.14 703.865 115.479C703.822 109.562 701.5 107.261 695.554 106.188C693.969 105.902 692.231 106.084 690.676 104.636C691.985 102.322 694.123 102.946 695.914 102.941C717.907 102.879 739.901 102.846 761.894 102.857C766.372 102.859 770.833 102.734 775.178 101.916C776.833 106.54 775.649 118.512 773.223 122.699C771.032 121.984 771.811 119.935 771.444 118.498C769.773 111.963 766.356 108.572 759.58 108.406C746.758 108.091 733.924 108.251 721.096 108.236C716.749 108.23 714.61 110.824 714.461 114.796C714.206 121.618 714.38 128.456 714.302 135.286C714.272 137.943 715.665 138.73 718.062 138.717C727.226 138.666 736.397 138.885 745.552 138.592C751.01 138.418 755.627 136.301 757.524 130.493C757.725 129.879 758.097 129.303 758.479 128.773C758.646 128.542 759.036 128.472 759.559 128.213C761.451 129.564 760.901 131.643 760.963 133.952Z" fill="black"/>
<path d="M496.301 164.813C496.249 167.959 496.528 170.569 497.207 173.185C498.454 177.983 501.281 180.584 506.34 180.861C508.317 180.969 510.744 180.188 512.55 183.381C498.12 183.381 484.207 183.381 469.802 183.381C471.472 180.315 473.705 181.059 475.553 180.888C481.985 180.294 485.234 177.726 485.561 171.303C486.517 152.497 486.264 133.665 485.711 114.849C485.551 109.403 482.229 106.731 476.596 106.179C474.529 105.976 472.21 106.601 470.52 104.585C471.535 102.307 473.576 102.95 475.244 102.944C492.405 102.881 509.568 102.721 526.726 102.931C534.706 103.029 542.685 103.85 550.263 106.752C559.611 110.332 564.802 117.162 565.025 126.143C565.239 134.727 560.34 141.726 551.288 145.729C543.838 149.023 535.904 149.976 527.894 150.164C518.901 150.375 509.899 150.33 500.904 150.175C497.429 150.115 496.066 151.393 496.272 154.847C496.459 158.001 496.303 161.176 496.301 164.813ZM497.281 110.99C495.19 121.354 496.706 131.818 496.433 142.233C496.391 143.831 497.501 144.695 499.019 144.657C511.952 144.334 524.965 145.993 537.807 143.687C547.717 141.907 552.829 135.472 552.648 126.053C552.466 116.637 547.648 111.063 537.499 109.274C525.633 107.183 513.63 108.597 501.689 108.429C500.152 108.408 498.823 109.2 497.281 110.99Z" fill="black"/>
<path d="M944.657 137.111C952.179 138.169 959.234 139.224 966.045 141.573C974.65 144.541 980.73 149.84 981.077 159.393C981.425 168.967 976.642 175.93 968.088 180.11C955.616 186.203 942.255 185.838 928.926 184.894C922.284 184.424 915.784 182.819 909.513 180.492C906.926 179.532 904.429 178.928 901.275 181.897C898.693 173.183 897.888 165.198 897.732 157.04C900.265 156.874 900.587 158.219 900.947 159.214C905.52 171.843 915.501 177.516 927.892 179.286C937.783 180.699 947.83 180.66 957.699 178.518C960.108 177.995 962.456 176.988 964.691 175.911C970.115 173.297 973.025 169.078 972.97 162.838C972.914 156.595 969.36 153.045 964.166 150.713C955.825 146.969 946.786 146.453 937.895 145.343C930.302 144.394 922.709 143.48 915.404 141.065C906.894 138.252 902.111 132.872 901.679 125.726C901.112 116.331 904.549 110.286 913.605 106.523C929.781 99.801 946.38 100.298 963.033 104.649C968.643 106.115 968.614 106.225 973.065 105.104C975.263 108.688 976.35 120.167 974.995 125.696C973.383 126.025 973.007 124.754 972.716 123.707C969.791 113.187 961.693 108.894 951.973 107.593C942.918 106.381 933.682 106.341 924.65 108.406C921.923 109.03 919.255 110.099 916.707 111.28C912.276 113.334 909.429 116.94 909.568 121.828C909.709 126.74 912.852 129.975 917.375 131.888C924.854 135.05 932.854 135.586 940.747 136.673C941.899 136.832 943.064 136.901 944.657 137.111Z" fill="black"/>
<path d="M829.316 185.138C821.567 184.226 814.344 182.99 807.508 180.254C804.883 179.204 802.722 179.735 799.784 181.723C797.163 173.233 796.614 165.139 796.146 157.037C798.543 156.612 798.932 157.744 799.334 158.863C804.007 171.86 814.265 177.711 827.046 179.406C836.265 180.629 845.651 180.597 854.898 178.777C855.388 178.68 855.892 178.649 856.376 178.534C865.897 176.27 871.45 170.902 871.672 163.758C871.906 156.211 867.467 151.508 857.068 148.7C845.952 145.699 834.36 145.604 823.11 143.367C818.527 142.455 814.004 141.393 809.827 139.216C797.473 132.777 796.403 116.896 807.866 108.901C815.085 103.866 823.513 102.413 832.011 101.83C843.026 101.076 853.989 101.703 864.503 105.562C867.049 106.496 869.315 105.936 872.206 104.518C873.95 111.752 874.636 118.547 874.057 125.463C871.736 125.733 871.5 124.338 871.193 123.345C868.422 114.365 861.861 109.667 853.092 108.143C841.864 106.192 830.58 106.134 819.501 109.435C817.102 110.149 814.834 111.175 812.864 112.801C806.094 118.388 806.662 126.524 814.274 130.917C819.566 133.971 825.518 134.892 831.473 135.66C840.372 136.807 849.315 137.691 858.085 139.662C860.834 140.28 863.566 141.104 866.19 142.128C872.923 144.755 878.111 149.056 879.205 156.604C880.503 165.565 877.776 173.055 869.934 178.213C862.297 183.236 853.648 184.783 844.764 185.228C839.783 185.477 834.776 185.209 829.316 185.138Z" fill="black"/>
<path d="M270.215 120.225C257.9 133.651 258.43 161.064 278.26 173.23C297.55 185.065 325.221 183.096 340.362 167.993C342.864 165.497 344.868 162.674 346.587 159.599C347.34 158.253 347.647 156.327 349.769 156.255C350.067 156.502 350.555 156.744 350.53 156.909C349.322 165.044 346.443 172.617 342.034 179.491C340.154 182.423 336.481 183.09 333.179 183.565C310.781 186.785 288.595 187.317 268.02 175.846C254.856 168.506 248.128 157.134 248.675 141.764C249.189 127.334 256.502 117.031 268.853 110.707C290.2 99.7774 312.488 98.7553 335.207 106.374C338.488 107.474 341.637 109.224 345.321 108.668C346.578 108.478 347.945 108.899 347.989 110.28C348.224 117.783 348.927 125.322 347.625 132.824C344.921 132.584 344.942 130.838 344.545 129.494C340.637 116.236 331.548 108.598 318.153 106.857C300.591 104.576 283.821 106.401 270.215 120.225Z" fill="black"/>
<path d="M417.457 141.442C424.625 132.218 431.67 123.346 438.504 114.315C443.04 108.319 442.784 107.836 435.953 105.557C435.405 105.374 434.971 104.849 433.27 103.57C444.487 103.57 454.339 103.57 464.761 103.57C463.564 105.961 461.807 105.929 460.314 105.988C455.2 106.188 451.537 108.927 448.535 112.671C438.327 125.405 428.161 138.174 418.065 150.997C414.228 155.871 414.055 170.797 417.685 175.819C419.843 178.803 422.904 180.353 426.561 180.813C428.12 181.008 429.978 180.509 430.998 182.35C428.163 184.539 394.299 184.79 390.501 182.657C391.503 180.535 393.581 181.061 395.271 180.752C402.07 179.512 404.751 176.367 405.859 169.467C407.426 159.706 405.704 151.355 398.681 143.746C391.698 136.181 385.927 127.51 379.367 119.535C373.836 112.81 368.013 106.285 358.401 105.524C357.862 105.482 357.366 104.882 356.926 103.833C368.706 103.048 380.421 102.56 392.13 103.409C392.174 103.834 392.219 104.259 392.264 104.684C391.742 105.027 391.265 105.528 390.692 105.691C384.146 107.546 383.719 108.365 387.549 114.169C394.713 125.026 403.211 134.888 411.091 145.211C411.463 145.699 412.104 145.981 412.602 146.345C414.909 145.392 415.77 143.251 417.457 141.442Z" fill="black"/>
<path d="M167.007 28.9921C163.994 27.9056 165.238 26.6314 167.06 25.8587C173.382 23.1765 179.371 18.933 186.898 21.4362C188.597 22.0011 190.068 20.7421 191.6 20.1538C193.375 19.4723 194.986 17.9326 197.793 19.2053C194.576 21.5142 193.55 25.2804 188.857 25.8287C185.049 26.2736 181.411 28.6685 177.379 28.6946C175.623 28.7059 176.741 26.9351 176.54 25.7574C173.51 26.7293 170.549 27.6794 167.278 28.8209C166.969 29.0124 166.996 29.0006 167.007 28.9921Z" fill="black"/>
<path d="M165.06 16.2794C167.537 15.5303 169.221 13.2015 172.277 14.7325C169.587 18.3366 167.76 22.1764 162.041 21.3913C156.629 20.6485 151.123 20.9835 145.626 21.6217C140.398 22.2287 136.425 18.1856 131.472 16.8108C142.694 18.6609 153.703 18.605 165.06 16.2794Z" fill="black"/>
<path d="M138.879 29.7553C133.646 31.7576 128.78 30.0002 124.143 29.0535C117.742 27.7467 111.673 26.198 105.226 29.0123C103.033 29.9697 100.066 29.9617 97.511 27.4866C113.761 23.0084 129.238 26.4491 145.743 27.9361C143.265 31.4981 141.127 29.8898 138.879 29.7553Z" fill="black"/>
<path d="M205.934 66.5842C207.086 66.6319 207.985 66.3835 208.449 67.3427C205.392 70.7143 199.784 72.1685 195.606 70.3931C198.075 66.5307 201.905 66.7632 205.934 66.5842Z" fill="black"/>
</g>
<defs>
<clipPath id="clip0_122_142">
<rect width="982" height="192" fill="white"/>
</clipPath>
</defs>
</svg>
