<svg version="1.1" id="Layer_1" xmlns="http://www.w3.org/2000/svg" xmlns:xlink="http://www.w3.org/1999/xlink" x="0px" y="0px"
	 width="100%" viewBox="0 0 1024 416" enable-background="new 0 0 1024 416" xml:space="preserve">
<path fill="#000000" opacity="1.000000" stroke="none" 
	d="
M182.969482,145.012329 
	C186.335083,145.154510 186.782196,146.843246 185.671463,149.695770 
	C184.539337,152.603241 184.662170,152.651077 187.579315,155.538010 
	C190.972137,152.363007 194.731064,151.724106 199.633087,152.047089 
	C203.855789,152.325333 208.955215,151.047607 213.011490,149.381653 
	C221.388641,145.941071 230.171829,146.125061 238.754761,144.704453 
	C244.401962,143.769745 245.376572,143.044907 244.768799,137.291321 
	C244.565430,135.366013 245.552856,133.764267 245.676239,131.913101 
	C243.920319,130.347916 241.837662,131.329987 239.950058,131.073975 
	C238.332901,130.854630 236.169403,131.102737 235.855316,129.035049 
	C235.139008,124.319351 232.114517,125.051056 229.166916,126.028717 
	C225.751984,127.161400 222.655853,129.171524 218.899475,126.468040 
	C217.356857,125.357811 215.485291,127.163193 213.945297,128.116409 
	C210.567505,130.207169 207.797882,129.167114 205.107986,126.178398 
	C209.428833,127.743340 212.680405,124.155632 216.023270,124.100388 
	C222.407852,123.994881 228.699371,123.533287 235.013824,122.803352 
	C235.725647,122.721062 237.127716,123.241753 237.180222,123.624153 
	C238.054199,129.991013 243.119827,127.695305 246.703537,128.251892 
	C249.416534,128.673233 252.187332,128.722260 255.184326,128.956665 
	C254.172958,131.341599 252.019928,131.281982 250.620010,132.304611 
	C248.290314,134.006439 246.606018,135.635971 248.330032,138.903900 
	C250.049942,142.164017 248.969666,144.287018 245.333267,145.818100 
	C239.162888,148.416046 232.507843,148.909378 226.170151,150.867981 
	C215.895386,154.043335 205.466949,156.768707 195.346420,160.454895 
	C190.033997,162.389832 187.123917,167.482376 187.800354,172.906250 
	C188.994278,174.057953 190.325714,172.067062 191.758514,173.257095 
	C191.850037,175.839096 188.154251,176.579010 188.391922,179.391556 
	C190.893616,180.372375 192.131454,179.158264 192.647583,176.848145 
	C193.618546,172.502228 196.014328,172.820557 199.352325,174.371094 
	C204.076141,176.565399 208.997665,178.327316 214.775009,177.824753 
	C213.441315,175.537018 210.198578,178.005356 209.820450,174.502823 
	C211.365143,172.793915 213.619949,171.353119 216.086563,171.964355 
	C224.415894,174.028442 231.770889,171.329819 239.097687,167.994904 
	C242.217773,166.574768 244.917343,165.568161 248.831238,167.292709 
	C252.496689,168.907806 257.254913,168.042816 261.147064,168.248856 
	C262.898865,169.666824 260.626801,171.012680 261.811554,172.268753 
	C263.840881,173.008453 265.959320,172.667389 268.062134,172.119446 
	C271.146271,171.315750 273.846039,172.302414 275.690918,174.597641 
	C277.640869,177.023575 276.247650,179.592270 275.054077,182.065491 
	C272.535461,187.284210 268.365540,191.035568 264.125427,194.645370 
	C264.220490,196.736588 266.641418,196.243622 267.256042,197.849823 
	C267.159515,198.179642 267.164459,198.769348 266.872101,199.064835 
	C264.673309,201.287109 261.829163,201.840530 258.996796,201.174438 
	C246.383682,198.208298 234.371582,201.949661 222.847137,205.692719 
	C217.478241,207.436508 210.686264,211.150742 210.131760,219.059418 
	C209.981064,221.208740 208.175873,220.830902 206.862686,221.361115 
	C201.046768,223.709229 195.296906,226.205124 191.647659,231.742645 
	C190.715942,233.156448 189.981628,234.629761 190.674118,236.778336 
	C194.767822,235.461502 195.390594,230.089676 200.016922,228.729065 
	C201.259338,237.009995 195.332214,240.344772 189.994217,244.465225 
	C194.092133,246.699615 197.549072,245.463531 200.412811,243.346390 
	C207.805344,237.881119 216.197769,237.269135 224.028763,240.291763 
	C228.245865,241.919479 232.416336,243.283691 236.745102,244.517960 
	C240.690353,245.642914 240.319000,247.839737 237.326859,249.682922 
	C231.130569,243.422668 223.551697,247.694565 217.027588,246.980179 
	C216.174377,244.031479 218.990891,244.345459 219.721329,242.697998 
	C213.730087,239.565369 208.579239,241.898605 203.475571,244.939987 
	C206.318817,244.844025 209.205063,243.589767 212.197586,245.386536 
	C210.777649,249.609070 206.125092,248.129440 203.415375,250.517776 
	C213.379120,256.549042 223.056839,251.306305 232.929352,250.072281 
	C233.319275,252.652390 231.748917,253.174286 230.156342,253.591553 
	C221.524841,255.852982 212.866013,258.014038 204.265961,260.388458 
	C202.390244,260.906342 201.575714,259.423004 200.214905,259.025848 
	C198.165695,258.427704 196.178864,258.391022 194.495178,259.691650 
	C192.706299,261.073578 193.336212,263.011108 193.943588,264.754669 
	C197.390656,274.650116 195.384033,285.277069 198.106323,295.323730 
	C198.963638,298.487610 201.432953,301.038055 201.606445,304.970245 
	C198.551315,304.155273 197.579498,301.957733 197.009323,299.926147 
	C195.123215,293.205811 193.481812,286.370667 193.723892,279.341858 
	C193.906448,274.041351 193.024017,268.932343 190.909637,264.255127 
	C188.640793,259.236267 188.864517,255.307190 193.656570,252.225067 
	C192.620514,250.731171 190.394455,251.475143 190.041595,249.573822 
	C190.900650,248.094711 192.497040,249.058090 193.893921,248.283478 
	C192.381546,248.198730 191.153152,248.139923 189.926193,248.059174 
	C186.565735,247.838028 184.931412,246.213852 186.040146,242.806961 
	C186.626770,241.004425 186.440125,239.188080 186.699738,237.400894 
	C187.556549,231.502228 188.793900,225.820999 195.799576,223.938065 
	C197.235199,223.552216 198.950241,222.907272 199.681381,220.541382 
	C197.699310,221.512604 196.115005,222.317505 194.505417,223.068207 
	C193.302124,223.629410 192.008514,224.363724 190.764801,223.343414 
	C189.347153,222.180420 189.729904,220.621231 190.311874,219.206299 
	C191.636932,215.984726 193.087799,212.814789 194.402222,209.589111 
	C194.628510,209.033768 194.434265,208.307068 194.434265,207.631195 
	C187.866257,209.987167 185.161514,213.923843 186.617722,221.465973 
	C187.706512,227.105240 183.820328,230.043121 181.655945,233.911270 
	C180.669373,235.674469 178.820770,235.216614 177.704590,233.323853 
	C175.269791,229.195038 175.147003,224.766983 176.326279,220.329025 
	C176.987122,217.841995 177.538223,215.942566 175.559387,213.498505 
	C173.165833,210.542236 174.419678,206.911209 175.544037,203.527145 
	C177.471268,197.726578 179.241989,191.873993 181.456070,184.844223 
	C178.798553,186.813843 177.409851,188.334076 177.458878,190.266129 
	C177.524124,192.836533 175.946747,193.920090 174.170532,194.741837 
	C171.936234,195.775497 170.981995,193.659851 169.744659,192.413620 
	C168.938019,191.601181 168.307800,190.525879 166.733475,190.645905 
	C162.406433,192.922836 169.482651,199.184479 162.990433,200.757019 
	C173.434692,207.119110 170.997101,217.900467 172.861649,227.056183 
	C173.241959,228.923721 172.345901,231.157333 173.224319,232.964020 
	C176.177368,239.037811 174.086578,244.553574 171.814682,250.164078 
	C170.883301,252.464111 170.053299,254.911682 170.284775,257.446869 
	C171.353043,269.147034 167.163086,280.441223 167.767090,292.143585 
	C168.062820,297.873260 164.319855,302.464600 162.445312,307.887115 
	C160.385483,306.312378 160.883621,305.090363 161.398972,304.132843 
	C165.188889,297.091217 165.127594,289.465668 164.903275,281.813965 
	C164.756073,276.793213 165.592361,271.914612 166.393250,266.969696 
	C167.507065,260.092621 167.141464,253.359680 161.354218,248.058685 
	C159.010559,245.911942 157.863983,242.999695 157.569321,239.615128 
	C156.817307,230.977295 146.676468,225.654968 139.044098,229.759689 
	C135.358810,231.741684 131.290710,232.856140 129.104553,237.392120 
	C127.967148,239.752075 124.097885,240.673126 120.975746,240.055618 
	C111.718094,238.224625 102.388458,239.661896 93.105164,239.229919 
	C91.617317,239.160721 89.793961,239.791275 88.686028,239.142090 
	C82.282555,235.389954 76.330582,236.642319 70.294182,240.006210 
	C68.109749,241.223526 65.551384,241.381790 63.010101,241.469421 
	C59.978634,241.573929 57.721634,241.865417 57.461338,237.403351 
	C57.210339,233.100540 50.993809,230.390427 45.258919,231.611115 
	C40.514343,232.621033 35.766350,233.712952 30.954155,232.902863 
	C26.238136,232.108963 21.616478,230.754501 16.468567,229.530823 
	C19.476589,222.754974 26.985636,224.505554 30.861198,220.666336 
	C30.232903,218.499512 27.708902,219.013824 26.904415,216.391281 
	C30.416321,214.255157 33.487762,211.055771 38.357616,210.533951 
	C52.379189,209.031525 66.392815,207.442719 80.388649,205.718201 
	C86.016891,205.024689 91.096687,202.160492 96.741562,201.268204 
	C101.937286,200.446884 106.165283,201.504745 110.747650,204.365036 
	C114.924210,206.972000 118.515099,211.707214 124.797272,210.284103 
	C127.228958,209.733246 129.941956,211.122635 132.307663,212.531525 
	C136.227264,214.865845 140.217697,216.218475 145.111404,215.243622 
	C149.470673,214.375229 152.563873,217.572128 154.958115,220.921158 
	C158.565811,225.967499 162.987762,229.671860 170.100815,230.949158 
	C171.314697,224.305130 169.545135,218.348785 167.734879,212.436249 
	C167.369186,211.241867 165.856461,211.075363 164.721420,210.972260 
	C157.264511,210.294891 150.418228,206.609863 142.759659,206.756516 
	C137.582306,206.855652 132.585449,205.803284 127.853729,203.328705 
	C123.629219,201.119400 119.106895,199.479584 114.395935,197.450607 
	C115.329613,195.006348 117.300034,192.354263 113.526627,190.575607 
	C111.075836,189.420395 107.977226,189.427261 106.008858,186.730225 
	C108.251129,183.961349 111.139259,183.639374 114.135483,183.613525 
	C120.289513,183.560410 126.432526,183.697891 132.600388,183.367737 
	C137.132797,183.125153 141.607452,185.692749 144.676086,188.543518 
	C149.688141,193.199738 156.212082,193.428436 161.675293,197.290817 
	C163.952240,190.086456 157.224792,188.348572 155.204636,183.706696 
	C159.839371,182.423950 158.699478,179.677444 157.166336,176.774750 
	C156.626816,175.753250 156.257492,174.625305 155.931885,173.510498 
	C155.018875,170.384659 156.226212,165.930313 153.056274,164.332504 
	C147.845200,161.705856 142.719971,158.413605 136.211945,159.076935 
	C131.145844,159.593292 126.315804,160.005798 121.261482,161.487549 
	C116.771179,162.803940 110.498138,164.604156 105.859276,159.804779 
	C105.466415,159.398331 104.534561,159.122528 104.014381,159.289246 
	C98.171776,161.161896 97.725365,154.387360 93.914520,153.057480 
	C95.913528,148.122803 94.699738,142.734116 96.101402,137.765625 
	C96.387482,136.751541 98.468887,136.243927 99.843338,135.431549 
	C98.482033,134.308151 96.971565,135.045654 95.604797,134.878494 
	C94.052757,134.688675 92.306763,134.550430 92.212341,132.679260 
	C92.124222,130.932724 93.639389,130.229843 95.252960,130.002747 
	C96.538361,129.821838 97.823402,129.638351 99.477135,129.403732 
	C98.064766,127.712982 96.453979,129.738342 95.242676,128.297409 
	C95.194992,128.084564 94.901077,127.566772 95.018982,127.171967 
	C95.874680,124.306717 98.210388,123.077293 100.776688,122.121246 
	C108.525497,119.234535 116.399391,120.040443 124.255356,121.438148 
	C127.356812,121.989952 130.403824,122.880730 133.447067,123.720619 
	C142.700531,126.274467 151.360458,121.655869 159.990997,122.132317 
	C161.640259,119.928207 160.179047,117.935249 161.116669,116.272514 
	C166.920334,114.824615 168.749481,122.377220 173.483780,122.603569 
	C175.299408,120.846069 172.912735,120.052811 173.777161,118.955780 
	C183.965561,119.955177 194.157639,120.954933 204.349701,121.954681 
	C204.347641,122.382919 204.345596,122.811157 204.343552,123.239395 
	C197.816116,122.405830 191.468979,126.446449 184.850906,123.078873 
	C183.784821,122.536415 182.206192,121.768341 181.589096,122.620171 
	C177.512573,128.247360 172.392014,123.768166 167.822906,124.221916 
	C160.820511,124.917297 153.498581,124.334236 146.866318,126.231049 
	C141.101425,127.879799 136.103806,126.830452 130.805695,125.829483 
	C128.034714,125.305954 125.290131,124.522888 122.620964,123.603455 
	C115.447174,121.132309 109.954163,124.471550 105.416901,129.203354 
	C103.764771,130.926315 104.782272,134.506943 104.976074,136.952881 
	C104.136658,138.477783 102.824638,138.316238 101.753067,138.637970 
	C99.993080,139.166351 97.896011,139.417786 98.277344,141.993851 
	C98.625374,144.344910 100.480690,145.224426 102.567741,145.521149 
	C105.608643,145.953461 108.792046,144.488846 112.378471,146.324829 
	C107.352173,148.548843 101.863884,147.094833 97.123184,150.177032 
	C100.178383,152.006393 103.902046,149.204163 106.121918,152.226288 
	C105.664970,154.381760 103.279480,154.093903 102.519119,155.583054 
	C106.159477,156.348053 106.159477,156.348053 113.189880,151.561096 
	C114.221756,154.884399 110.548317,155.933029 110.086304,158.372391 
	C113.878235,160.355621 117.566895,158.979095 119.496262,154.842743 
	C119.979652,153.806442 120.192001,152.568375 120.893280,151.726562 
	C121.965775,150.439163 123.417282,149.353333 125.254852,150.003403 
	C127.297798,150.726151 125.606056,152.581329 126.129486,153.882462 
	C129.452866,151.882568 132.464783,149.483841 136.676971,148.500122 
	C136.884430,152.479828 139.124588,153.398193 142.638107,153.415710 
	C148.192230,153.443375 153.621292,153.695633 157.989990,149.354095 
	C158.925034,148.424866 160.230164,147.970749 161.814606,148.655319 
	C162.407303,152.153564 158.622818,154.100037 158.890732,157.603333 
	C161.898392,158.369843 164.087509,154.350693 167.524658,156.067520 
	C170.378311,157.492905 168.764618,162.775116 173.441116,162.368149 
	C174.409744,160.441864 171.293472,159.209488 172.715698,157.340240 
	C177.577606,157.104187 182.276535,160.904434 183.807648,166.684433 
	C185.843384,162.290329 186.911591,158.469620 182.677094,155.011093 
	C179.968170,152.798584 180.770264,148.737823 177.969559,146.834122 
	C179.440720,144.748428 181.266510,146.269226 182.739258,145.150223 
	C182.995834,145.000519 182.969482,145.012329 182.969482,145.012329 
M131.586304,220.373169 
	C134.802505,221.670990 137.836624,223.586670 141.481232,223.473694 
	C147.071167,223.300461 158.055542,229.348206 158.885834,234.455276 
	C160.064545,241.705521 163.656372,247.184799 168.331924,252.258606 
	C169.292053,249.426407 170.256699,246.447159 171.311218,243.500061 
	C173.098862,238.503952 172.250534,235.269684 167.367828,233.394485 
	C160.713669,230.838974 155.754517,226.505890 151.457520,221.071716 
	C149.254822,218.286133 146.663696,216.905029 142.752609,218.068115 
	C138.963318,219.194962 134.904892,219.416733 130.470596,219.668411 
	C127.529198,218.759811 128.212784,217.147385 129.795334,215.610962 
	C127.887276,212.941483 125.353485,213.129562 122.840836,213.463181 
	C115.572868,214.428131 109.018272,211.487915 105.133896,206.342224 
	C102.159645,202.402222 99.962334,203.636566 97.003242,204.153061 
	C89.627213,205.440475 82.673958,208.977173 75.164421,209.179718 
	C64.011093,209.480545 53.191906,212.656326 42.020443,212.532166 
	C40.761654,212.518173 39.322178,212.872925 39.160000,214.190598 
	C42.387222,220.160797 48.215267,215.641068 52.478935,218.076263 
	C42.712143,221.732590 33.246387,225.768661 22.894754,227.092239 
	C25.641363,228.319687 28.071898,226.259262 31.067858,226.925644 
	C31.002733,230.975693 34.085400,230.592911 36.873024,230.628357 
	C39.596474,230.663010 42.123554,229.738205 44.585880,228.745728 
	C52.794655,225.437088 52.782379,225.400772 58.408005,232.091797 
	C59.157658,232.983429 60.027020,233.816162 60.587547,234.817963 
	C63.285927,239.640564 67.194733,238.915314 70.743996,236.524292 
	C75.321373,233.440613 80.222977,233.361740 85.120552,234.300507 
	C87.966103,234.845932 90.594925,234.936340 93.400826,234.554443 
	C97.333511,234.019226 101.183052,232.607330 105.257256,233.329712 
	C106.115288,233.481842 106.871887,233.080505 107.410522,232.348236 
	C109.083534,230.073898 107.028542,225.664108 103.095436,222.691315 
	C100.257309,220.546173 98.560661,221.656784 97.213852,224.385559 
	C96.523872,225.783508 95.530617,227.006500 93.932922,227.208420 
	C88.415016,227.905777 82.881081,228.476273 77.353241,229.095062 
	C80.512093,226.003983 84.321121,225.698425 88.193466,225.663147 
	C90.550201,225.641663 92.807137,225.611160 94.511093,223.477661 
	C99.424339,217.325806 105.622192,217.162766 108.504021,224.495483 
	C111.333588,231.695221 118.119156,230.761200 122.441505,234.386017 
	C123.124191,234.958557 124.482437,234.649597 124.618660,233.922333 
	C125.581673,228.780853 130.932434,228.176514 133.938248,225.406616 
	C131.600693,221.642441 127.034492,224.895416 124.769913,221.626312 
	C126.669991,219.922943 129.071045,220.826553 131.586304,220.373169 
M231.083984,188.134918 
	C232.922562,188.817413 232.908661,190.692429 233.663757,192.389145 
	C236.063248,190.791168 238.483292,190.036591 241.160187,191.581879 
	C244.416595,193.461670 247.166534,192.934021 249.181335,189.573105 
	C249.295670,189.382324 249.777100,189.411606 250.070206,189.342606 
	C251.906143,189.854202 250.554428,192.329315 251.260468,192.549118 
	C263.203064,192.766190 268.430328,185.137192 273.585052,177.291992 
	C272.551941,176.304916 271.816315,176.543747 271.005951,176.889236 
	C266.858307,178.657608 262.940826,178.465210 259.451263,175.343918 
	C258.502808,174.495575 257.235992,174.689255 256.241974,174.242172 
	C251.194809,171.972229 246.243652,170.496918 241.145477,174.109467 
	C240.723480,174.408478 239.830795,174.167435 239.193558,174.019287 
	C232.653320,172.498947 226.812057,174.729492 220.355209,177.395950 
	C222.190933,177.972534 224.067780,177.843369 223.685013,180.619049 
	C219.405350,181.677887 214.868073,182.140198 210.351364,181.145874 
	C205.730133,180.128525 201.215454,178.627182 196.627106,177.330063 
	C195.487869,179.720367 196.383026,183.314529 192.477448,183.449326 
	C189.893158,183.538498 187.303329,183.466217 184.076584,183.466217 
	C185.699280,191.966080 192.808899,195.646896 197.118423,201.390015 
	C199.579269,199.423386 201.513626,196.989380 204.006241,196.071609 
	C209.095184,194.197906 214.537216,193.385513 218.547424,189.108505 
	C219.329041,188.274887 221.722000,188.035706 222.823608,188.597366 
	C225.660416,190.043777 227.962753,188.858856 231.083984,188.134918 
M163.824860,186.070587 
	C164.638382,186.494415 164.932938,187.724258 166.263351,187.580307 
	C165.369202,183.557220 160.216309,180.601761 163.023590,175.831223 
	C165.121887,172.265488 166.999741,168.166367 172.695053,167.522644 
	C170.482208,171.963669 164.867233,173.966187 165.406876,178.733353 
	C165.925858,183.317886 169.535980,186.703308 172.320389,190.397263 
	C178.959839,183.867752 180.024506,179.894226 177.045593,174.031494 
	C181.154007,171.261520 181.157654,168.454727 177.092438,163.421814 
	C173.077881,165.677643 168.840988,167.259796 164.319168,168.422653 
	C164.020020,164.366516 159.742203,160.707123 155.654373,160.559860 
	C157.671555,169.079361 159.667328,177.605453 163.824860,186.070587 
M134.839355,186.255539 
	C128.566833,186.742050 122.202637,185.904678 115.795876,187.045731 
	C116.564919,189.635086 117.889099,191.049973 119.891747,191.713760 
	C122.696167,192.643265 124.391029,194.183289 125.762794,197.112625 
	C127.074524,199.913757 130.585938,202.191055 133.957565,201.163849 
	C137.613892,200.049896 140.874786,197.638016 143.747849,196.093369 
	C143.697983,189.924927 139.059509,188.741150 134.839355,186.255539 
M185.074463,211.702682 
	C186.043365,207.813309 190.556824,207.168991 192.654999,203.731995 
	C188.755386,200.511673 186.124664,196.368835 182.281921,191.993164 
	C180.381622,197.988937 178.685516,202.969406 177.263519,208.026932 
	C176.761261,209.813278 177.241104,211.797836 178.749207,213.068588 
	C180.969971,214.939880 180.812103,216.694244 179.542831,219.147690 
	C177.866043,222.388779 177.489777,225.879349 179.816299,229.256058 
	C183.523773,226.882690 184.573227,223.988953 183.687439,220.121674 
	C183.086212,217.496841 183.463760,214.824966 185.074463,211.702682 
M217.363861,202.685928 
	C221.000504,201.560150 218.792923,195.986542 223.506454,195.640884 
	C221.276962,194.432098 219.823624,193.098129 217.640015,194.845001 
	C213.597397,198.079056 208.864792,200.229492 204.226013,202.490265 
	C197.574875,205.731796 196.754715,212.137604 194.729858,219.161255 
	C199.885574,216.625046 205.432236,216.221970 204.751328,209.396957 
	C204.671524,208.597015 205.564194,207.481583 206.298416,207.754593 
	C210.741669,209.406677 210.908554,205.269073 212.599045,203.251724 
	C213.902328,201.696472 214.744873,199.563980 217.042236,199.567047 
	C218.365585,201.037582 215.644714,201.732330 217.363861,202.685928 
M243.497452,196.829987 
	C249.510590,195.669266 255.237061,199.033035 261.687317,198.385696 
	C260.251068,196.838364 259.323273,195.847061 257.530334,195.940201 
	C251.083191,196.275085 244.655762,196.200882 238.536270,193.685577 
	C237.471878,193.248093 236.614899,193.684341 235.764328,194.257324 
	C232.968781,196.140564 230.167114,198.014694 227.367798,199.892319 
	C232.441086,198.574249 237.003433,195.468445 243.497452,196.829987 
M198.077682,252.478348 
	C197.252975,252.909088 196.183990,253.131561 196.407364,254.635330 
	C198.178741,255.605286 199.970673,256.549957 202.023071,254.961884 
	C201.553589,252.966629 200.015640,252.817398 198.077682,252.478348 
z"/>
<path fill="#000000" opacity="1.000000" stroke="none" 
	d="
M681.418579,251.031006 
	C677.231018,259.130035 669.455017,261.090637 661.403015,263.730713 
	C669.250427,273.750397 675.041321,284.654938 683.882568,293.355774 
	C687.998962,297.406799 693.195923,297.937927 698.899048,297.798889 
	C698.397522,299.035980 698.324097,299.743225 698.040100,299.841431 
	C688.149536,303.262085 675.849548,299.802734 669.035400,291.624542 
	C663.378540,284.835327 658.330566,277.586700 653.591858,270.141418 
	C651.200562,266.384338 648.141296,264.706818 643.661438,264.813599 
	C637.175781,264.968201 630.679077,264.730774 624.188660,264.590973 
	C620.043274,264.501740 617.545288,265.694946 617.943115,270.592194 
	C618.346680,275.559692 618.019653,280.582092 618.274475,285.567078 
	C618.685608,293.611359 621.269897,296.189117 629.140015,296.914520 
	C630.737305,297.061737 632.550842,296.718628 633.987671,299.350922 
	C619.662720,299.350922 605.797607,299.350922 591.397278,299.350922 
	C593.270386,296.146179 595.702637,297.019379 597.686340,296.876709 
	C602.681030,296.517456 605.640259,294.042938 606.785645,289.173035 
	C607.322815,286.889130 607.693542,284.628174 607.688843,282.274200 
	C607.659363,267.453247 607.721252,252.632050 607.664856,237.811264 
	C607.622803,226.749863 605.247009,223.935150 594.542053,221.763412 
	C593.782532,221.609314 593.076782,221.190323 592.119507,220.802856 
	C593.173096,218.232025 595.176636,218.804901 596.818726,218.800125 
	C613.470581,218.751770 630.122620,218.713760 646.774475,218.752182 
	C653.777161,218.768341 660.744263,219.359344 667.479980,221.416489 
	C681.590088,225.725830 686.902405,236.815018 681.418579,251.031006 
M646.311401,259.635284 
	C650.838928,259.771942 655.279236,259.155701 659.561340,257.731598 
	C668.318970,254.819000 672.231506,249.101959 671.808960,240.101639 
	C671.431702,232.065002 667.369568,227.131363 658.261353,225.308685 
	C646.773010,223.009705 635.080200,224.190872 623.481567,224.621307 
	C619.783691,224.758530 618.212952,227.670212 618.193726,231.306747 
	C618.151611,239.286926 618.172729,247.269012 617.989014,255.246201 
	C617.905457,258.873413 619.652161,259.734955 622.905518,259.670258 
	C630.385071,259.521576 637.869812,259.626892 646.311401,259.635284 
z"/>
<path fill="#000000" opacity="1.000000" stroke="none" 
	d="
M776.962769,249.952026 
	C775.180542,256.982910 777.911011,263.856781 776.195435,270.530457 
	C775.380859,270.374084 774.844055,270.390991 774.794861,270.244385 
	C771.786987,261.274200 764.835999,259.688995 756.509033,260.057922 
	C749.524597,260.367371 742.511719,260.250641 735.518555,260.060211 
	C731.765686,259.958038 730.042297,261.038818 730.215088,265.145172 
	C730.502075,271.965210 730.229919,278.806763 730.354675,285.636292 
	C730.459900,291.394623 732.263855,294.036011 737.817200,294.349152 
	C749.944214,295.032959 762.120300,295.289917 774.246155,294.175568 
	C782.373657,293.428619 787.990356,288.802216 791.951294,281.851807 
	C792.798584,280.365051 793.124756,278.296570 795.276001,277.796753 
	C798.092407,288.114319 789.465576,300.250641 779.175354,300.143707 
	C761.523193,299.960327 743.863708,300.769867 726.213440,299.556183 
	C721.429138,299.227173 716.577026,299.983978 711.752869,300.078552 
	C710.052002,300.111938 708.015930,300.756958 706.799194,298.667572 
	C707.843262,296.525879 709.947693,297.153687 711.620056,296.817841 
	C717.615540,295.613800 719.859802,293.434235 719.898132,287.462402 
	C720.017700,268.801910 720.001831,250.139526 719.864868,231.479141 
	C719.821472,225.562180 717.499695,223.261368 711.553955,222.188141 
	C709.968933,221.902039 708.230652,222.083572 706.675537,220.635712 
	C707.984680,218.322342 710.122864,218.945526 711.913696,218.940552 
	C733.906982,218.879395 755.900452,218.846222 777.893860,218.856964 
	C782.371399,218.859146 786.832458,218.733719 791.177734,217.915710 
	C792.833069,222.539871 791.649048,234.512009 789.223145,238.699158 
	C787.032104,237.983978 787.811035,235.935135 787.443481,234.497864 
	C785.772461,227.962631 782.355774,224.572189 775.579529,224.405701 
	C762.757812,224.090668 749.924194,224.250931 737.095520,224.235458 
	C732.748474,224.230209 730.609436,226.824081 730.460693,230.796219 
	C730.205261,237.618423 730.379822,244.455841 730.301697,251.286041 
	C730.271362,253.942947 731.664551,254.730072 734.061890,254.716797 
	C743.225952,254.666061 752.396790,254.884689 761.552063,254.592438 
	C767.009338,254.418228 771.627075,252.300598 773.523987,246.493408 
	C773.724670,245.878891 774.096985,245.302963 774.478638,244.773148 
	C774.645264,244.541748 775.036133,244.471817 775.558899,244.212799 
	C777.450989,245.563675 776.900269,247.642761 776.962769,249.952026 
z"/>
<path fill="#000000" opacity="1.000000" stroke="none" 
	d="
M512.300598,280.813141 
	C512.248840,283.959076 512.527649,286.569031 513.207336,289.185516 
	C514.453613,293.983185 517.281372,296.584503 522.339783,296.861084 
	C524.317017,296.969238 526.744385,296.188538 528.550110,299.380981 
	C514.119934,299.380981 500.206543,299.380981 485.801758,299.380981 
	C487.472015,296.315491 489.705109,297.058685 491.552521,296.887970 
	C497.984985,296.293640 501.234070,293.726044 501.560547,287.303528 
	C502.516541,268.497284 502.263611,249.664581 501.710754,230.849274 
	C501.550720,225.403442 498.229095,222.731537 492.596375,222.179199 
	C490.528717,221.976440 488.210388,222.600891 486.519836,220.584885 
	C487.535217,218.307053 489.575806,218.950302 491.244446,218.944138 
	C508.404968,218.880661 525.567627,218.721039 542.725525,218.931381 
	C550.706360,219.029221 558.684814,219.849655 566.262939,222.751755 
	C575.610840,226.331573 580.801697,233.161743 581.025452,242.142685 
	C581.239319,250.727036 576.340454,257.726379 567.287720,261.728973 
	C559.837708,265.022949 551.904053,265.975891 543.893860,266.163788 
	C534.901428,266.374756 525.898621,266.329895 516.904114,266.174988 
	C513.428833,266.115112 512.066040,267.392700 512.271606,270.846588 
	C512.459351,274.000885 512.303406,277.175659 512.300598,280.813141 
M513.281311,226.989670 
	C511.189880,237.353577 512.705566,247.818329 512.432556,258.232971 
	C512.390686,259.831299 513.501038,260.695007 515.019287,260.657074 
	C527.952209,260.334137 540.965088,261.993286 553.807251,259.686615 
	C563.716797,257.906677 568.829102,251.471664 568.647583,242.052780 
	C568.466003,232.637161 563.648438,227.062576 553.498779,225.274048 
	C541.632812,223.183060 529.630310,224.597198 517.689026,224.429443 
	C516.151733,224.407837 514.823059,225.199738 513.281311,226.989670 
z"/>
<path fill="#000000" opacity="1.000000" stroke="none" 
	d="
M960.657104,253.110474 
	C968.178711,254.169113 975.234314,255.223831 982.045227,257.573181 
	C990.649597,260.541138 996.729858,265.839447 997.077209,275.392426 
	C997.425293,284.967224 992.642029,291.930115 984.087769,296.109467 
	C971.616455,302.202545 958.255432,301.837494 944.925598,300.893890 
	C938.283752,300.423706 931.783997,298.819092 925.513367,296.492340 
	C922.925537,295.532135 920.428833,294.927704 917.275024,297.896423 
	C914.692932,289.182587 913.887512,281.198273 913.731934,273.039673 
	C916.264954,272.873688 916.586975,274.218597 916.947266,275.213593 
	C921.520020,287.842865 931.501465,293.515839 943.892151,295.285706 
	C953.782715,296.698425 963.829529,296.659882 973.698547,294.517975 
	C976.107605,293.995087 978.456177,292.987823 980.691467,291.910522 
	C986.114807,289.296722 989.025330,285.077576 988.969910,278.837891 
	C988.914490,272.595215 985.360413,269.045074 980.166077,266.713135 
	C971.825256,262.968658 962.786377,262.453064 953.895142,261.342468 
	C946.301636,260.393982 938.709106,259.480316 931.403625,257.065308 
	C922.894104,254.252258 918.110901,248.872070 917.679443,241.726059 
	C917.112244,232.331100 920.548645,226.285797 929.605103,222.522491 
	C945.780518,215.800934 962.380188,216.297455 979.033203,220.648804 
	C984.642883,222.114594 984.614075,222.224838 989.064758,221.104248 
	C991.263000,224.687897 992.349548,236.166702 990.994629,241.695496 
	C989.382690,242.024933 989.006836,240.754120 988.715759,239.707321 
	C985.790588,229.187103 977.692932,224.894180 967.973206,223.593323 
	C958.917969,222.381409 949.682495,222.340820 940.649719,224.406006 
	C937.922607,225.029541 935.255310,226.098679 932.707153,227.279770 
	C928.276306,229.333420 925.428650,232.940353 925.568298,237.827652 
	C925.708557,242.739700 928.851562,245.975204 933.375366,247.888107 
	C940.853577,251.050323 948.853516,251.585571 956.746582,252.673218 
	C957.898926,252.832001 959.063599,252.901352 960.657104,253.110474 
z"/>
<path fill="#000000" opacity="1.000000" stroke="none" 
	d="
M845.316162,301.137573 
	C837.567505,300.226196 830.344116,298.989502 823.508301,296.254395 
	C820.882874,295.203918 818.722412,295.735352 815.783752,297.723053 
	C813.163269,289.232452 812.613831,281.138611 812.146606,273.037079 
	C814.543335,272.612335 814.931885,273.744019 815.334290,274.863129 
	C820.007568,287.860016 830.264709,293.710815 843.046204,295.405975 
	C852.265503,296.628693 861.650940,296.596680 870.898254,294.776672 
	C871.387878,294.680298 871.891663,294.648682 872.376038,294.533478 
	C881.896973,292.270142 887.449707,286.901978 887.671875,279.757507 
	C887.906494,272.211395 883.467224,267.508118 873.068359,264.700287 
	C861.952332,261.698822 850.359802,261.604309 839.109863,259.366852 
	C834.526917,258.455383 830.004578,257.392914 825.827393,255.215790 
	C813.472778,248.776581 812.402649,232.896057 823.866211,224.900726 
	C831.085510,219.865616 839.512756,218.412689 848.010925,217.830399 
	C859.026367,217.075577 869.989319,217.702667 880.503235,221.561554 
	C883.048828,222.495865 885.315369,221.935989 888.206482,220.517899 
	C889.950195,227.751831 890.636475,234.546616 890.057495,241.463058 
	C887.735840,241.732788 887.499939,240.337494 887.193542,239.344513 
	C884.422363,230.364685 877.861084,225.667068 869.092163,224.142990 
	C857.864319,222.191528 846.580505,222.134125 835.501282,225.434708 
	C833.102600,226.149261 830.833862,227.175339 828.864380,228.800644 
	C822.093994,234.387634 822.661743,242.524170 830.274109,246.917236 
	C835.566345,249.971313 841.518555,250.891876 847.472656,251.659531 
	C856.372375,252.806976 865.314636,253.691315 874.084778,255.662262 
	C876.834412,256.280182 879.565674,257.104065 882.190491,258.128052 
	C888.923218,260.754547 894.111572,265.055603 895.205078,272.604279 
	C896.503174,281.565216 893.776611,289.055420 885.934021,294.213409 
	C878.296814,299.236389 869.647644,300.782837 860.764099,301.227448 
	C855.783081,301.476746 850.776245,301.208832 845.316162,301.137573 
z"/>
<path fill="#000000" opacity="1.000000" stroke="none" 
	d="
M286.214905,236.225220 
	C273.900238,249.650757 274.429749,277.064087 294.259796,289.230286 
	C313.550049,301.065369 341.221313,299.096436 356.361786,283.993469 
	C358.864136,281.497345 360.868195,278.674103 362.587372,275.599121 
	C363.340118,274.252686 363.646729,272.327209 365.768921,272.255341 
	C366.066986,272.502197 366.554718,272.743683 366.530151,272.909088 
	C365.322205,281.043915 362.443359,288.617126 358.034454,295.491394 
	C356.154297,298.422913 352.481415,299.089905 349.179169,299.564697 
	C326.780823,302.785065 304.595551,303.317444 284.020599,291.845703 
	C270.855927,284.505554 264.127991,273.133789 264.675049,257.763672 
	C265.188629,243.334381 272.502594,233.030762 284.853241,226.707169 
	C306.200165,215.777466 328.487610,214.755295 351.207153,222.373871 
	C354.487610,223.473892 357.637024,225.224411 361.321533,224.667740 
	C362.577728,224.477951 363.945557,224.899063 363.988800,226.279785 
	C364.223877,233.783096 364.926880,241.322205 363.624786,248.823608 
	C360.920654,248.583603 360.942017,246.838425 360.545532,245.493698 
	C356.636658,232.236221 347.548248,224.597794 334.152649,222.857391 
	C316.591431,220.575806 299.821411,222.401031 286.214905,236.225220 
z"/>
<path fill="#000000" opacity="1.000000" stroke="none" 
	d="
M433.457092,257.441986 
	C440.625366,248.218216 447.670074,239.346451 454.503601,230.314896 
	C459.040070,224.319229 458.784027,223.835510 451.953094,221.556580 
	C451.405029,221.373734 450.971069,220.848877 449.269409,219.570221 
	C460.487213,219.570221 470.339111,219.570221 480.761322,219.570221 
	C479.564331,221.960953 477.807190,221.929443 476.313629,221.987854 
	C471.199646,222.187912 467.536804,224.927002 464.535339,228.671234 
	C454.327271,241.405411 444.160858,254.173538 434.065277,266.996979 
	C430.227936,271.871185 430.054749,286.797180 433.685272,291.818573 
	C435.842926,294.802887 438.904053,296.352600 442.561157,296.812531 
	C444.119385,297.008453 445.978333,296.508881 446.998291,298.350281 
	C444.163239,300.538940 410.298859,300.789886 406.500885,298.656921 
	C407.502533,296.535156 409.580872,297.060486 411.271088,296.752106 
	C418.070068,295.511597 420.751129,292.366943 421.858917,285.467163 
	C423.426147,275.705566 421.704376,267.354858 414.680847,259.745850 
	C407.697571,252.180496 401.926758,243.509766 395.367310,235.535110 
	C389.835876,228.810242 384.013367,222.284653 374.401215,221.524231 
	C373.861633,221.481522 373.366089,220.881775 372.925659,219.832901 
	C384.706238,219.047729 396.420624,218.560120 408.129395,219.409363 
	C408.174194,219.834198 408.219025,220.259018 408.263824,220.683853 
	C407.742188,221.027466 407.265076,221.528305 406.692047,221.690674 
	C400.145447,223.545593 399.719238,224.364563 403.549072,230.168823 
	C410.712646,241.025497 419.210571,250.888092 427.091034,261.211426 
	C427.463135,261.698853 428.104126,261.981049 428.601379,262.345245 
	C430.908417,261.391602 431.770020,259.250641 433.457092,257.441986 
z"/>
<path fill="#000000" opacity="1.000000" stroke="none" 
	d="
M183.007141,144.992004 
	C179.994293,143.905563 181.238159,142.631348 183.059525,141.858643 
	C189.381897,139.176392 195.371216,134.932953 202.898087,137.436142 
	C204.596558,138.001038 206.068375,136.741989 207.600296,136.153717 
	C209.374893,135.472229 210.985825,133.932480 213.792877,135.205246 
	C210.576370,137.514114 209.549591,141.280273 204.856812,141.828568 
	C201.049133,142.273468 197.411057,144.668396 193.379227,144.694489 
	C191.622620,144.705841 192.740509,142.934982 192.539825,141.757339 
	C189.510406,142.729172 186.548676,143.679291 183.278214,144.820862 
	C182.969482,145.012329 182.995834,145.000519 183.007141,144.992004 
z"/>
<path fill="#000000" opacity="1.000000" stroke="none" 
	d="
M181.060303,132.279449 
	C183.537079,131.530365 185.220749,129.201569 188.277100,130.732605 
	C185.586731,134.336700 183.760117,138.176468 178.040863,137.391418 
	C172.628876,136.648575 167.123093,136.983612 161.626373,137.621780 
	C156.397873,138.228821 152.425171,134.185730 147.472366,132.810913 
	C158.693634,134.661041 169.702835,134.605072 181.060303,132.279449 
z"/>
<path fill="#000000" opacity="1.000000" stroke="none" 
	d="
M154.878479,145.755341 
	C149.646088,147.757629 144.779755,146.000214 140.142838,145.053513 
	C133.741791,143.746658 127.673027,142.198044 121.225769,145.012344 
	C119.032654,145.969666 116.066017,145.961670 113.510910,143.486572 
	C129.761154,139.008362 145.238281,142.449051 161.742508,143.936096 
	C159.264572,147.498123 157.126907,145.889786 154.878479,145.755341 
z"/>
<path fill="#000000" opacity="1.000000" stroke="none" 
	d="
M221.933899,182.584320 
	C223.086319,182.631958 223.984909,182.383621 224.449036,183.342819 
	C221.392044,186.714355 215.783905,188.168625 211.605942,186.393219 
	C214.074982,182.530838 217.904831,182.763260 221.933899,182.584320 
z"/>
</svg>