<svg version="1.1" id="Layer_1" xmlns="http://www.w3.org/2000/svg" xmlns:xlink="http://www.w3.org/1999/xlink" x="0px" y="0px"
	 width="100%" viewBox="0 0 1024 1024" enable-background="new 0 0 1024 1024" xml:space="preserve">
<path fill="#000000" opacity="1.000000" stroke="none" 
	d="
M610.010864,572.128845 
	C608.410095,573.075134 607.198914,574.196838 605.805420,574.511780 
	C593.974487,577.186279 591.112915,587.493530 586.919922,596.614014 
	C586.260986,598.047302 586.345642,599.867737 586.283691,601.516602 
	C586.228455,602.986511 586.103088,604.708679 587.825439,605.402893 
	C589.545410,606.096252 590.679810,604.800293 591.642456,603.684265 
	C596.974548,597.502747 602.219910,591.246277 607.565552,585.076599 
	C608.704773,583.761780 609.836182,581.639771 611.971680,582.619629 
	C614.331116,583.702332 612.578247,585.752686 612.564209,587.446838 
	C612.421021,604.727478 599.341980,611.661621 587.086548,619.048645 
	C583.633545,621.130005 581.550842,622.945129 582.734070,627.234131 
	C583.948181,631.634888 584.572083,635.686035 590.772095,636.270081 
	C601.845642,637.313110 611.367310,635.582947 620.743164,628.579346 
	C627.914978,623.222229 637.466187,621.037476 646.467773,619.640076 
	C650.505920,619.013184 655.081177,621.463806 659.337830,622.763306 
	C662.117615,623.611816 664.779053,623.950500 667.669006,623.355347 
	C672.242798,622.413452 675.678345,624.193481 677.016052,628.702759 
	C677.977356,631.943481 679.767822,633.221008 682.871216,632.416504 
	C688.452393,630.969666 693.748962,632.356323 699.136292,633.533936 
	C702.733276,634.320129 705.495483,635.747925 705.777527,639.783630 
	C705.946045,642.195007 702.894409,644.243591 698.197754,645.009766 
	C698.078064,644.401001 697.729797,643.726440 697.869995,643.176270 
	C699.524353,636.681458 699.180664,636.228516 692.203857,636.091064 
	C689.862732,636.044983 687.541565,636.097839 685.333801,637.062317 
	C683.758484,637.750549 682.045837,638.113098 680.495239,637.248474 
	C673.226379,633.195679 666.237244,636.481384 659.202820,638.003967 
	C657.176697,638.442505 654.840393,640.321472 653.750549,637.196533 
	C652.635254,633.998657 655.425293,633.418640 657.657593,632.663513 
	C661.889343,631.231995 666.107788,629.761108 670.378601,627.924927 
	C662.395020,627.654114 654.892273,625.255371 647.270508,623.396118 
	C646.037598,623.095337 644.498962,623.160767 643.329468,623.627563 
	C634.211121,627.267456 623.770264,628.343262 617.197205,637.058716 
	C621.465637,638.204895 625.529236,637.611267 629.601379,635.712585 
	C633.744629,633.780701 638.069702,632.722534 642.732788,635.493225 
	C640.605957,639.388367 636.850220,640.595581 633.262207,641.263062 
	C620.867859,643.568665 609.946838,648.704407 599.973877,657.741699 
	C607.726562,658.616516 614.323853,663.922913 622.192322,660.713867 
	C622.984192,659.376831 620.994568,659.056763 621.572754,657.848267 
	C622.763062,656.315002 625.034302,657.509521 626.789734,656.065674 
	C622.988159,653.037170 616.983154,654.494080 614.405945,649.750549 
	C615.851196,647.307983 617.669861,648.280579 619.337585,648.909302 
	C625.665466,651.295105 631.719604,654.270813 638.967224,653.228394 
	C642.488098,652.721985 646.055237,654.712341 649.559265,655.808289 
	C655.136536,657.552612 660.625793,657.906799 665.457153,653.540039 
	C666.663696,652.449524 668.204407,651.525269 669.752747,651.051392 
	C676.856018,648.877441 684.463989,649.720947 692.371277,646.412598 
	C690.252808,652.248108 686.459412,654.326416 682.288269,653.936218 
	C676.455261,653.390747 672.008789,655.641479 667.089844,658.120056 
	C658.745361,662.324585 649.502930,663.954651 640.277893,665.261658 
	C637.974670,665.588013 635.646423,665.803772 633.322510,665.902954 
	C628.929871,666.090576 624.525146,666.144287 623.410461,673.660034 
	C619.940796,665.053711 613.916382,665.357056 608.053284,665.370789 
	C599.790649,665.390198 595.479675,668.801453 597.574402,676.566589 
	C603.934875,700.144348 600.316345,724.746887 606.021912,748.331848 
	C607.920593,756.180542 609.875000,763.801575 614.624451,770.479431 
	C615.619873,771.878967 616.989990,773.373352 616.182129,775.701172 
	C613.657715,776.565979 612.909363,774.458679 611.749084,772.981750 
	C605.173035,764.611206 604.121399,754.317627 601.858948,744.467773 
	C598.410950,729.456726 597.265259,714.224915 597.627014,698.838196 
	C597.899658,687.239868 593.713257,676.507629 589.396912,666.173401 
	C586.710693,659.742126 586.023010,653.014648 583.769104,646.607483 
	C582.169556,642.060303 580.952881,637.376892 578.978027,632.954041 
	C574.950989,623.935059 576.611877,617.982727 585.169495,612.068298 
	C582.262756,610.869263 580.666809,608.758362 580.033203,605.921143 
	C579.418274,603.167419 580.293213,600.665466 581.139893,598.121399 
	C582.347229,594.493530 583.701111,590.888428 584.548645,587.172424 
	C585.953857,581.011108 589.190491,576.059448 595.170410,574.290344 
	C605.715881,571.170410 613.000000,563.000305 622.251831,557.936829 
	C625.501404,556.158264 626.614014,552.261169 629.148560,549.686401 
	C617.878784,556.949341 605.391052,561.590271 593.466492,567.341064 
	C590.479553,568.781616 587.916443,565.682617 588.856018,561.580322 
	C590.236084,555.555420 592.224182,549.683411 595.660583,544.482849 
	C600.260193,537.521790 599.256470,529.378967 601.725159,521.284851 
	C580.579285,532.033203 574.073181,545.468262 578.853088,567.189697 
	C580.021729,572.500244 579.006348,577.132629 574.951294,580.870667 
	C572.046509,583.548340 570.092773,586.683899 569.107239,590.546631 
	C568.207581,594.072449 565.985474,596.552795 562.088623,596.539734 
	C558.482910,596.527649 557.815857,593.505554 556.770874,590.821228 
	C554.483398,584.945190 554.106201,579.116638 553.874695,572.714844 
	C553.572083,564.346924 555.172852,557.462036 558.929688,550.542664 
	C559.887268,548.779053 559.061829,547.875549 557.707031,546.840515 
	C550.442261,541.290405 546.710327,531.121033 550.456360,522.979980 
	C557.598755,507.457458 560.295227,490.523621 566.737732,474.818604 
	C568.634338,470.195312 569.892761,465.337708 570.669678,460.387024 
	C571.155151,457.293976 570.996338,454.402100 567.589722,453.024719 
	C565.848755,453.656616 565.542786,455.028107 565.398743,456.322815 
	C564.384949,465.433533 560.007324,473.006226 554.734375,480.218689 
	C552.299194,483.549561 549.717102,486.721985 549.140259,491.184052 
	C548.715637,494.468842 545.568542,495.212372 542.575378,492.933899 
	C538.802063,490.061493 536.088806,486.147827 533.961487,482.026031 
	C530.366333,475.060242 526.612122,468.218842 522.146057,461.772064 
	C518.098206,455.929047 517.969727,450.354492 522.293152,444.301270 
	C526.874817,437.886505 531.222961,431.415222 538.241821,427.370911 
	C539.760376,426.495850 541.206604,425.248352 543.000000,425.772064 
	C543.829163,427.176086 543.419861,428.182922 542.520996,428.673462 
	C535.661926,432.416565 531.944214,439.167450 527.106018,444.805634 
	C522.400391,450.289459 521.998291,456.165100 526.557129,461.541351 
	C530.624023,466.337280 533.379517,471.759796 536.333923,477.147217 
	C538.423828,480.958282 541.349060,484.116119 544.541992,488.089844 
	C549.992004,480.693848 554.588867,473.343658 557.864868,465.214050 
	C558.917236,462.602356 559.185120,459.655243 560.363953,457.118103 
	C562.589355,452.328430 562.729370,448.422668 557.556885,445.405365 
	C556.108521,444.560516 554.420959,442.935272 555.637085,440.847015 
	C556.670837,439.071991 558.615601,439.553253 560.173462,440.067474 
	C563.668091,441.221039 564.911194,439.656433 564.706238,436.452789 
	C563.943298,424.524963 562.284607,413.031769 549.641907,407.192139 
	C548.748657,406.779480 547.871826,406.197266 547.184387,405.499664 
	C545.509705,403.800079 543.645874,401.610779 545.206055,399.387848 
	C547.032104,396.786163 549.172546,399.181152 550.726257,400.342529 
	C556.553345,404.698242 563.517700,407.615509 567.857117,413.881500 
	C569.666321,416.493866 570.888855,418.854004 566.505554,420.503143 
	C570.465210,427.295685 570.301086,434.633881 570.380005,442.850067 
	C574.148743,439.892120 574.550110,436.922882 574.681396,434.017365 
	C575.043579,425.998810 576.737061,418.177734 578.029297,410.301788 
	C578.526794,407.269897 578.581543,403.832642 582.190979,402.585083 
	C581.210999,400.191345 579.315063,400.177032 577.853821,399.621368 
	C574.887268,398.493439 572.631958,396.754395 571.512939,393.696899 
	C570.994568,392.280548 570.424866,390.759796 569.016846,390.063049 
	C565.242310,388.195221 564.207581,385.451080 565.453308,381.431488 
	C566.627014,377.644043 563.254700,376.311707 561.093506,374.374176 
	C557.132141,370.822723 557.367493,367.345978 561.631592,365.324615 
	C563.747070,364.321716 565.478638,365.001770 567.179871,366.281677 
	C568.569031,367.326813 569.782593,368.888947 571.740540,368.394531 
	C572.788757,366.871674 571.860107,365.924805 571.216125,365.032288 
	C566.049622,357.872162 558.151978,355.889709 550.209656,355.403931 
	C544.110229,355.030914 541.547302,360.800690 544.062622,366.576752 
	C546.074158,371.195923 546.322144,376.792511 552.305725,378.901672 
	C548.838440,381.664398 545.801086,381.198212 544.045837,377.490936 
	C542.057251,373.290985 540.608765,368.884216 537.367310,365.346375 
	C536.097656,363.960510 536.860474,362.215973 537.608643,360.651489 
	C539.004822,357.731567 541.074036,355.223663 540.193665,351.364777 
	C539.578430,348.668091 542.642334,348.532227 544.527100,348.770782 
	C553.507812,349.907471 562.409485,352.166809 569.634766,357.522217 
	C574.007874,360.763550 578.378418,363.328369 583.357849,365.223999 
	C585.272461,365.952850 587.659790,366.226837 588.662781,368.765289 
	C587.067688,371.198669 584.866943,370.053101 582.904602,369.647614 
	C579.536377,368.951660 577.573303,370.345551 577.442810,373.627045 
	C577.314453,376.855286 576.428772,378.776764 572.947205,379.699066 
	C570.148621,380.440369 569.486938,382.706635 571.912109,385.001709 
	C572.990417,386.022217 574.395874,386.748016 574.854797,388.302307 
	C575.425598,390.235138 573.436096,392.939545 576.185730,394.140869 
	C580.087769,395.845642 584.007996,397.728241 588.339478,397.651733 
	C589.428711,396.082642 588.195862,395.263641 587.660706,394.364105 
	C586.031921,391.626495 587.068359,389.652252 589.701538,388.885376 
	C596.008606,387.048615 602.193542,384.236511 609.091248,387.195984 
	C612.934021,388.844757 616.939209,388.374207 620.260925,385.250885 
	C623.447144,382.254852 627.621887,382.393921 631.557800,382.036407 
	C634.868774,381.735626 638.228882,381.661682 641.548096,381.841187 
	C646.137634,382.089355 649.879333,381.004242 653.115784,377.393433 
	C657.249634,372.781433 663.125427,373.615936 668.591309,373.505096 
	C671.038269,373.455475 673.602722,374.206299 675.874268,372.370483 
	C675.314941,370.210480 673.329041,370.706146 671.921021,370.161194 
	C669.121582,369.077637 668.395996,366.379333 670.998413,365.516327 
	C679.433350,362.719208 687.068420,357.581116 696.163513,356.772644 
	C696.752563,356.720245 697.383545,357.139923 699.024170,357.676788 
	C693.362366,362.499542 685.423035,361.226349 680.226379,367.291138 
	C689.028076,368.379822 697.445801,367.963562 705.640808,370.947876 
	C703.598877,374.188690 700.977295,374.812622 698.399780,373.998413 
	C695.580017,373.107666 693.446533,373.909851 691.495972,375.563751 
	C686.355713,379.922180 680.253052,381.506927 673.780151,382.756134 
	C658.405579,385.723297 643.749634,391.253204 628.841980,395.910309 
	C620.476624,398.523682 612.339783,402.224121 604.147583,404.379425 
	C594.412537,406.940613 590.342407,414.639893 583.564941,419.744476 
	C582.462341,420.574890 581.529480,422.162201 581.300232,423.530701 
	C580.158936,430.345703 579.278931,437.204529 578.278992,444.244934 
	C586.785095,442.990356 591.364258,438.559601 592.673096,430.956604 
	C593.759766,424.644684 597.602417,421.539398 604.108887,422.101776 
	C607.236267,422.372070 608.825012,420.945801 609.621948,418.258209 
	C610.567871,415.067902 611.325500,411.821930 612.265015,408.629578 
	C613.733276,403.640686 616.789429,401.559570 620.670288,404.598846 
	C627.436279,409.897522 635.300110,410.947449 642.935303,413.509125 
	C649.469849,415.701538 655.623291,418.276306 662.635620,417.858795 
	C665.247375,417.703308 668.113831,417.451294 668.338806,414.300507 
	C668.549744,411.347229 665.510864,411.184296 663.439148,410.221497 
	C660.165039,408.699982 656.075317,410.599518 653.042786,407.826874 
	C658.643005,401.583191 668.062561,397.818512 673.470642,403.188080 
	C677.831116,407.517487 681.854004,406.805389 686.210510,403.444977 
	C692.229126,398.802521 699.465332,399.449402 706.362000,399.402527 
	C709.676697,399.380005 712.558350,398.993683 715.387329,397.377350 
	C723.195740,392.916138 730.929138,388.320099 739.437317,385.211060 
	C743.134705,383.860016 746.040527,383.278412 746.231140,388.640442 
	C746.315430,391.012360 747.718506,391.498718 749.973938,391.404510 
	C759.742432,390.996582 769.552734,392.521820 779.305908,390.689056 
	C780.934509,390.383057 782.890625,390.735809 783.405640,392.709381 
	C783.989746,394.947571 781.860657,395.402283 780.460144,396.080109 
	C778.090698,397.226807 775.616882,398.157837 773.208923,399.726410 
	C780.099121,401.715485 786.872498,404.262970 794.148804,401.810669 
	C800.633667,399.625122 806.676331,399.815887 812.736023,403.545319 
	C817.729370,406.618469 820.490845,411.329254 818.544128,416.902435 
	C816.013855,424.146393 811.945984,430.694580 807.766541,437.106750 
	C806.137939,439.605408 803.168762,440.241211 800.507202,441.229462 
	C796.368103,442.766327 791.987305,443.861115 788.434998,447.085693 
	C790.069092,450.090088 793.022156,450.584412 795.516785,451.655334 
	C799.647949,453.428925 803.871582,454.986206 808.044739,456.663300 
	C809.575745,457.278595 811.436523,457.770294 811.425232,459.835022 
	C811.413757,461.936768 809.419495,462.294830 807.952637,462.935059 
	C804.594849,464.400604 801.201294,465.788116 797.792542,467.131989 
	C795.097900,468.194275 792.534546,469.597473 790.980469,472.008087 
	C788.658875,475.609253 785.925476,478.376129 781.841736,480.067078 
	C778.350525,481.512695 777.976746,483.980133 781.372620,486.317841 
	C782.465393,487.070129 783.573181,487.831207 784.762146,488.406097 
	C786.457703,489.225922 789.344238,488.198273 789.826233,490.701660 
	C790.315063,493.239929 788.735779,495.612335 787.107605,497.467316 
	C780.011963,505.551453 772.731750,511.930206 760.169678,509.721069 
	C747.609375,507.512268 734.571838,507.471436 721.786621,508.280548 
	C712.031799,508.897827 702.603394,512.067627 693.408508,515.502991 
	C691.369873,516.264709 689.369873,517.524231 687.218506,517.160950 
	C680.932922,516.099731 675.628906,521.197327 669.275146,519.812500 
	C668.240723,519.587036 666.701843,520.592224 665.712463,521.410889 
	C655.443542,529.907898 645.287659,538.541626 636.650269,548.765442 
	C634.693848,551.081238 632.439148,553.549255 637.044861,555.815857 
	C638.869690,556.713867 638.196289,558.446899 636.771973,559.426880 
	C635.851074,560.060425 634.636658,560.552307 633.534668,560.593079 
	C624.097656,560.942627 616.847229,565.680542 610.010864,572.128845 
M636.059143,416.257141 
	C630.559570,416.129059 624.652466,417.612549 621.575256,410.534943 
	C620.656921,408.422699 617.964172,409.024567 617.351257,411.813354 
	C616.782349,414.401978 616.364380,417.049377 616.179382,419.691864 
	C615.604614,427.901886 612.222046,430.463226 604.464539,427.987732 
	C600.384399,426.685699 597.898743,428.094818 597.856628,432.027069 
	C597.791138,438.154480 594.543030,441.832184 589.963013,445.060120 
	C588.276855,446.248505 586.104675,447.144775 585.376404,449.680664 
	C588.471313,453.692596 593.644775,456.095520 595.126465,461.871063 
	C586.939148,458.506744 581.338989,450.198090 571.749634,449.608948 
	C573.749756,454.269012 580.169128,455.154053 581.374268,461.623932 
	C573.530884,459.042297 573.324829,464.409546 572.387512,469.035187 
	C572.321350,469.361664 572.326050,469.714142 572.202820,470.015656 
	C570.420532,474.376190 571.727539,477.357391 576.041321,479.269440 
	C579.617737,480.854553 581.880798,483.818634 582.738953,487.533936 
	C584.020630,493.082642 587.355835,496.543243 592.479980,498.670990 
	C597.239075,500.647125 600.126343,504.313354 601.707275,509.206329 
	C602.491028,511.632111 603.029602,514.310669 605.427246,516.392822 
	C607.486755,513.605591 609.291992,511.033600 611.229919,508.565765 
	C615.738831,502.823792 621.049438,496.432617 628.308899,496.676941 
	C636.041809,496.937134 641.232483,492.610748 647.591248,490.481995 
	C647.907104,490.376282 648.216125,490.249695 648.534058,490.151001 
	C651.375061,489.268982 653.473267,487.522125 654.941833,484.918396 
	C655.666870,483.632751 656.394836,481.831024 657.550476,481.391998 
	C663.875305,478.989166 670.786743,479.003937 677.397766,475.502899 
	C677.542175,481.543365 672.331116,483.578827 671.606689,488.798553 
	C674.957214,486.874329 677.527588,485.388367 680.107361,483.918976 
	C683.682373,481.882660 692.087402,484.152008 693.894958,487.667542 
	C694.503418,488.850739 693.987549,489.882874 693.316162,490.916382 
	C692.539795,492.111420 690.807983,492.504089 690.476685,494.611786 
	C695.014038,492.256012 699.663574,490.410065 701.627319,485.672760 
	C704.002686,479.942383 705.799011,479.258453 710.326965,483.692139 
	C713.530884,486.829376 717.258911,488.823730 721.449280,490.115631 
	C730.468445,492.896271 730.640198,492.791351 734.199829,484.223053 
	C734.962952,482.386169 735.799805,480.022705 738.335388,480.887421 
	C740.357605,481.577087 740.203125,483.767151 739.880981,485.661469 
	C739.474365,488.052673 738.203003,490.976837 741.946838,491.695251 
	C745.074341,492.295441 748.491699,492.681213 748.987305,487.877747 
	C749.124207,486.551086 749.877563,485.353729 752.054688,485.145599 
	C754.263672,488.378967 756.619690,491.827576 758.942139,495.226990 
	C757.157349,497.364410 755.125061,497.270813 753.138672,497.181641 
	C745.321411,496.830841 737.483704,496.687897 729.696228,495.991638 
	C722.325134,495.332672 714.535583,495.626587 708.802490,489.461639 
	C707.156250,487.691376 705.826965,489.045715 704.576599,490.210571 
	C698.429321,495.937561 691.221863,500.115234 684.019958,504.306152 
	C681.671814,505.672546 679.375305,507.127686 675.876648,509.260773 
	C683.558899,510.097137 689.629395,511.075836 694.205200,505.203186 
	C695.688293,503.299713 698.045044,502.683319 700.284607,501.954254 
	C711.591248,498.273529 723.288452,502.316132 734.681274,500.204071 
	C735.739197,500.007935 736.991760,500.517609 738.083252,500.900818 
	C746.306702,503.787689 754.969788,504.648010 763.434753,506.407562 
	C767.840942,507.323456 771.709595,506.059662 775.142456,503.013123 
	C772.855957,500.098541 768.377319,502.936676 767.241699,498.530365 
	C770.228210,496.030884 773.880188,497.175934 777.190186,496.747894 
	C778.956604,496.519440 781.160522,496.957092 781.542297,494.443390 
	C781.881775,492.208221 780.157349,491.240112 778.432861,490.452301 
	C774.862671,488.821320 771.894043,486.499420 769.822327,483.111389 
	C766.515869,477.704102 767.421875,474.596191 773.149902,472.032776 
	C779.382507,469.243561 785.656372,466.546173 791.883240,463.744202 
	C794.051575,462.768494 796.383118,461.931976 797.989380,459.517120 
	C792.329590,457.173035 787.496765,454.303284 783.411255,450.268799 
	C779.034241,445.946472 779.371155,444.199585 785.227051,441.866974 
	C788.474609,440.573364 791.757690,439.363892 795.054077,438.199524 
	C797.686218,437.269775 799.305847,435.470245 799.510681,432.735291 
	C799.964661,426.675049 803.494507,423.194031 808.712952,420.765930 
	C814.780884,417.942627 815.680298,413.553162 811.515930,408.073364 
	C811.077515,408.256744 810.516235,408.333832 810.188599,408.651794 
	C802.217651,416.386383 792.649719,414.264984 783.256165,412.970215 
	C781.199829,412.686768 779.235596,411.429077 778.734863,409.425476 
	C777.631714,405.011536 774.498291,404.950867 770.997986,405.095337 
	C768.837830,405.184448 766.661682,405.142975 764.504089,404.994568 
	C757.854736,404.537231 756.751282,402.696259 759.795166,396.252014 
	C756.096863,396.252014 752.652832,396.310944 749.211914,396.232300 
	C746.706177,396.175018 744.801453,396.997742 743.127930,398.968262 
	C738.743286,404.130920 733.027710,405.695953 726.480652,404.516541 
	C722.884644,403.868713 719.057922,401.964722 715.762878,402.658356 
	C705.920471,404.730286 695.416138,404.088470 686.324890,409.480835 
	C681.352478,412.430206 676.264465,414.112305 671.301697,408.035065 
	C673.187378,414.873138 677.159241,416.596771 682.879639,415.793701 
	C685.158508,415.473755 687.971436,415.869659 688.074280,419.037170 
	C688.165100,421.833710 685.586731,422.587982 683.468445,422.620270 
	C673.851074,422.766754 664.263855,423.904846 654.595459,422.631287 
	C648.133240,421.780060 642.957458,417.966644 636.059143,416.257141 
M563.113098,500.411133 
	C561.468323,508.959229 557.979126,516.904785 555.175415,525.081848 
	C552.469421,532.973694 554.766968,540.239502 561.278687,545.003174 
	C564.810791,547.587097 565.169006,550.181030 562.301941,553.279846 
	C559.941040,555.831604 558.394531,558.766479 558.396545,562.224060 
	C558.399536,567.362305 558.635498,572.488708 558.432129,577.641907 
	C558.302002,580.940613 559.716980,584.020264 563.025452,586.323914 
	C565.486206,582.881104 567.231506,578.959290 570.215027,576.609924 
	C574.755005,573.034973 574.585144,569.420410 573.387390,564.415161 
	C569.326294,547.444031 574.962280,534.205505 589.589172,524.816406 
	C596.901123,520.122681 597.018555,518.528992 590.665588,512.630798 
	C584.203003,506.630829 577.839600,500.591553 574.571716,492.019684 
	C573.511963,489.239899 571.222900,487.188965 567.894531,486.330627 
	C565.239685,490.560150 564.215637,495.069366 563.113098,500.411133 
M597.522278,556.248779 
	C598.837830,558.844238 600.696533,557.403015 602.182678,556.677124 
	C608.319153,553.679749 614.352417,550.471741 620.478638,547.452698 
	C624.230774,545.603638 625.474121,542.810425 624.282043,538.842224 
	C623.641418,536.709290 623.672363,534.582703 624.402344,532.456116 
	C626.328796,526.843689 629.008850,526.180786 633.061768,530.332092 
	C633.736450,531.023132 634.268433,531.977051 635.797668,531.744690 
	C639.140625,527.449463 641.724426,522.413696 644.750061,517.659668 
	C647.724731,512.985657 650.558289,507.969757 657.491272,505.356598 
	C655.897827,512.596008 649.918762,515.578491 648.434265,521.236084 
	C654.673096,516.707153 661.306763,512.738342 666.268127,506.998810 
	C664.988708,504.680328 661.817383,504.187439 663.132629,501.612030 
	C664.181885,499.557312 666.393616,498.892822 668.658081,498.761475 
	C669.321533,498.722961 669.992310,498.743195 670.656006,498.789795 
	C676.034546,499.167480 679.457886,495.312927 683.470825,492.794189 
	C684.800537,491.959656 684.713440,490.543304 683.784302,489.277618 
	C682.892578,488.062988 681.784790,488.263885 680.691040,488.893768 
	C678.670471,490.057465 676.678772,491.271454 674.679199,492.471222 
	C668.016296,496.468964 668.016968,496.470123 664.784485,489.008209 
	C662.785034,490.243683 660.763794,491.363068 658.879395,492.678497 
	C648.619873,499.840332 638.026672,506.418121 626.744141,511.884766 
	C623.162781,513.619995 619.846619,515.914001 616.453369,518.023438 
	C611.116638,521.341064 607.386353,526.093445 605.999451,532.133545 
	C604.118530,540.324829 600.839233,547.931702 597.522278,556.248779 
M601.975952,651.579956 
	C603.088989,650.502136 605.069702,650.299927 605.388489,648.125610 
	C600.468079,646.233643 594.432251,648.941956 588.979126,643.836182 
	C598.280151,644.192322 606.468994,645.794189 614.807617,642.735413 
	C609.836975,640.656616 595.097961,639.314209 590.723877,640.202271 
	C588.884766,640.575623 588.002686,641.540833 588.273560,643.271851 
	C589.129028,648.737854 590.228149,654.144775 593.122498,659.017029 
	C596.113098,656.490417 598.773865,654.242493 601.975952,651.579956 
M792.618408,407.165710 
	C791.194702,407.676666 789.770996,408.187653 788.347290,408.698608 
	C791.928955,408.727478 795.641785,410.524353 798.877991,407.724731 
	C797.102844,405.722260 795.191162,406.471893 792.618408,407.165710 
M736.271973,394.962341 
	C734.882202,395.977722 732.825623,396.134521 731.908020,398.627594 
	C735.975159,399.049927 738.557617,397.649414 740.297668,394.185577 
	C738.800781,393.339355 737.904602,394.458923 736.271973,394.962341 
M598.964966,393.253082 
	C597.159851,393.308228 595.246521,392.705444 592.987000,394.046356 
	C596.505859,395.752106 599.359863,396.823578 603.044006,394.253021 
	C601.480957,393.816010 600.573608,393.562347 598.964966,393.253082 
z"/>
<path fill="#000000" opacity="1.000000" stroke="none" 
	d="
M284.420532,605.644409 
	C287.238617,604.856506 289.673553,603.981750 291.430756,602.178284 
	C295.864624,597.627930 301.250549,596.332458 307.378052,596.607361 
	C311.022919,596.770935 314.692505,596.309387 318.353241,596.211975 
	C323.806244,596.066772 328.976135,596.930786 333.331696,600.602783 
	C338.998718,605.380493 340.226532,604.983521 342.599152,597.117004 
	C348.563293,599.293335 354.040588,595.997742 359.881317,595.299683 
	C363.530457,594.863525 367.426300,593.940002 370.782593,595.286255 
	C378.973145,598.571594 385.629944,594.688416 392.577148,591.838440 
	C392.717957,589.989075 391.356995,589.738647 390.355927,589.447266 
	C386.547668,588.338745 384.801056,586.182617 384.467529,581.945251 
	C384.049774,576.638123 380.608276,572.613647 376.212280,569.774536 
	C373.995056,568.342590 372.303284,566.955139 372.015656,564.094177 
	C380.154938,565.709595 386.584442,572.518677 387.190308,580.652954 
	C387.465546,584.348511 389.155945,585.550842 392.335083,586.836243 
	C397.766296,589.032043 403.203308,590.891113 408.983215,591.856506 
	C411.564026,592.287537 413.397156,594.144775 414.984741,596.108887 
	C417.096100,598.720886 419.518311,600.705994 423.097107,599.795776 
	C426.757385,598.864929 427.508148,595.145386 427.390411,592.611389 
	C427.097198,586.300964 431.335480,584.380920 435.644470,582.126648 
	C441.471375,579.078247 447.496948,576.349792 453.244507,572.096436 
	C444.866760,564.930359 434.769836,565.832764 425.564911,563.542603 
	C430.404449,561.156616 435.255096,561.077759 439.988525,562.486084 
	C446.045044,564.288086 451.986877,566.490662 457.929626,568.653931 
	C461.509644,569.957092 464.981293,570.332458 468.630615,568.899475 
	C473.233002,567.092285 477.436279,568.106567 481.296112,571.063599 
	C488.303528,576.432129 495.466888,581.605652 502.330078,587.151428 
	C508.533264,592.163940 511.310303,598.984375 511.303894,606.919983 
	C511.296417,616.169006 515.286438,623.869019 521.930725,629.650513 
	C526.776917,633.867310 529.570251,638.696777 531.199890,644.578369 
	C531.625488,646.114380 531.596924,647.866211 533.132141,648.863831 
	C534.125061,648.482910 534.483704,647.739624 534.565674,646.902100 
	C535.569397,636.637207 539.544250,627.286560 543.284546,617.830627 
	C547.290710,607.702454 543.375488,597.429443 533.642578,592.504639 
	C528.749451,590.028748 523.601318,588.041443 518.511292,585.973999 
	C512.502686,583.533386 507.574829,579.866272 503.585938,574.662842 
	C498.927460,568.585815 493.886932,562.796875 488.909515,556.970581 
	C484.276764,551.547729 478.633209,550.738647 471.778381,552.456848 
	C459.925720,555.427734 447.696350,554.963440 435.568115,555.076355 
	C435.043945,555.081238 434.514099,554.478882 433.627533,553.941650 
	C436.895020,550.149109 441.543457,552.934753 444.781921,551.094849 
	C444.830933,550.535156 444.999756,550.022827 444.866516,549.925964 
	C438.150360,545.043213 432.053589,539.001587 422.495758,540.420349 
	C412.803253,541.859009 403.222107,539.968628 393.786407,537.999817 
	C387.449432,536.677551 386.175079,532.838867 390.026306,528.016663 
	C386.235260,525.949951 382.001709,526.162903 378.023651,525.410217 
	C374.714874,524.784119 373.014465,523.521667 375.934357,520.689453 
	C377.921600,518.761963 375.841339,516.926880 376.465546,515.196411 
	C382.111572,514.054443 384.160553,515.195190 385.000977,520.278198 
	C385.395691,522.665344 387.093872,522.404907 388.662872,522.782837 
	C393.422943,523.929382 398.439941,524.212463 403.148987,526.470764 
	C401.743744,531.236084 397.526062,531.141174 394.159210,532.680969 
	C397.130310,535.113098 400.356964,534.850586 403.422180,534.942078 
	C411.579193,535.185608 419.741608,535.242249 427.899933,535.450562 
	C432.181000,535.559814 435.994385,537.084167 439.546356,539.466248 
	C445.680664,543.580078 452.500702,546.297546 459.422089,548.723022 
	C463.606567,550.189453 467.709167,550.074768 472.088318,548.545654 
	C481.181183,545.370605 487.924957,550.549194 493.814911,556.327209 
	C498.544373,560.966736 502.648407,566.319336 506.568481,571.692139 
	C513.867126,581.695618 525.185059,584.740356 535.760254,589.018372 
	C538.857788,590.271362 539.367615,586.957153 539.450073,585.062134 
	C539.710388,579.079285 540.087219,573.009460 539.378723,567.097961 
	C538.271912,557.863342 536.227173,548.744446 534.769409,539.546509 
	C534.360046,536.963623 533.052856,535.483215 530.996216,534.073303 
	C525.122559,530.046631 518.456665,528.864746 511.609741,528.311340 
	C509.257751,528.121216 506.899384,527.930115 504.786407,526.959167 
	C488.777527,519.602661 471.568390,519.173706 454.467102,518.166565 
	C451.329926,517.981750 448.271271,518.392639 445.153595,519.418823 
	C441.323975,520.679443 438.116882,518.900269 435.827698,515.532776 
	C434.519989,513.609009 433.309174,511.259888 430.507538,514.133667 
	C429.381836,515.288391 427.866547,514.302124 426.949432,513.377747 
	C420.983459,507.364410 412.788910,506.298798 405.373749,503.501221 
	C403.826630,502.917511 402.122284,502.506195 400.824219,501.558289 
	C398.205475,499.646057 398.633209,496.962830 401.721954,495.927643 
	C404.016174,495.158722 406.467224,494.857727 408.825989,494.353088 
	C402.335480,486.334442 394.799591,480.479767 384.875519,478.217194 
	C383.757690,477.962372 382.677216,477.415771 381.664246,476.852081 
	C378.181030,474.913879 377.834717,472.779053 381.028992,471.039551 
	C386.195282,468.226166 391.754791,466.450989 397.767120,466.817169 
	C399.267731,466.908508 401.040771,467.240234 401.218353,469.047791 
	C401.423798,471.139526 399.537628,471.084045 398.077301,471.364227 
	C394.524445,472.045807 390.807709,472.040985 386.806976,474.056213 
	C395.272491,475.009552 400.905853,479.301453 405.819244,485.278290 
	C408.839355,488.952087 414.289490,488.841370 418.319092,491.157043 
	C420.095764,492.178070 423.083954,492.171936 422.860291,494.988129 
	C422.663452,497.466492 419.878082,497.209778 418.124176,497.932800 
	C416.511047,498.597748 414.821259,499.076630 413.253021,499.983063 
	C416.584717,500.057892 419.837280,497.033142 422.929260,499.795410 
	C423.924652,502.073883 420.986267,501.916962 420.983429,503.534576 
	C423.550446,505.403259 426.410095,506.277740 429.343597,506.858124 
	C433.245697,507.630188 436.643188,509.263245 439.139771,512.393616 
	C441.507050,515.361938 444.069977,515.164612 447.053162,513.433594 
	C456.127502,508.167969 465.147522,502.773895 475.215454,499.518951 
	C478.136322,498.574677 477.847534,495.668518 479.120270,493.813782 
	C478.038055,492.267426 476.577637,491.813232 475.159821,491.380463 
	C471.362152,490.221283 467.227051,489.516449 470.472687,483.797943 
	C471.528107,481.938324 469.566132,480.846527 467.974335,480.195801 
	C461.858063,477.695587 455.387390,476.079254 450.234863,471.413116 
	C448.200439,469.570648 445.139069,470.655609 442.541901,471.445404 
	C435.195953,473.679291 428.059418,471.597809 420.897034,470.288330 
	C420.037628,470.131226 419.566986,469.347504 419.397858,468.377777 
	C420.446716,466.120880 422.371979,466.741486 424.086945,467.199188 
	C430.529663,468.918579 436.875061,469.260712 443.125397,466.404175 
	C445.885498,465.142761 448.376953,466.203949 450.672424,467.670746 
	C456.887634,471.642181 463.387451,474.954498 470.585114,476.763794 
	C473.735931,477.555878 475.269836,479.854553 475.789368,482.832031 
	C476.421448,486.454254 478.573242,487.635498 482.068573,487.850922 
	C487.849396,488.207092 492.983490,489.603424 498.157928,493.232208 
	C504.610352,497.757202 512.191406,501.280182 521.547791,502.010193 
	C518.956665,492.338867 519.892639,482.347137 510.164398,476.555786 
	C506.201843,474.196808 503.245453,470.549072 501.614746,465.982910 
	C505.038757,463.834137 507.201843,467.544250 510.483856,466.771515 
	C511.161835,461.415314 511.016724,456.015472 508.092407,451.161255 
	C503.356171,443.299255 502.243073,434.577423 501.806824,425.756378 
	C501.441986,418.377655 499.417267,415.191620 492.219788,413.294952 
	C487.651520,412.091187 483.834045,409.678833 479.772278,407.346619 
	C471.955933,402.858551 463.125793,400.871826 453.966187,401.974487 
	C450.987823,402.333008 448.101227,403.068420 445.070251,402.417542 
	C435.891541,400.446320 427.430969,401.446381 419.731873,407.557556 
	C416.249695,410.321503 411.593597,410.400726 407.226105,409.848602 
	C401.532745,409.128906 395.960052,409.371460 390.367615,410.701782 
	C385.156342,411.941437 379.402039,407.959656 378.595062,402.724365 
	C378.481140,401.985321 378.643585,400.903931 379.122070,400.419647 
	C383.974030,395.509247 388.918243,390.690002 394.081146,385.604340 
	C395.853394,388.594910 394.124054,390.123871 392.970001,391.482574 
	C390.819153,394.014771 388.387085,396.312622 386.017914,398.653229 
	C384.459625,400.192749 383.638794,401.844788 384.648987,404.013184 
	C385.521698,405.886475 386.974670,406.732788 389.038300,406.658356 
	C398.247070,406.326111 406.463593,404.031677 411.573151,395.449646 
	C412.265839,394.286194 412.742004,393.122925 412.848724,391.730652 
	C413.285919,386.026306 417.497528,381.548798 423.089264,380.789062 
	C426.582275,380.314453 427.127563,382.250916 426.387085,385.060425 
	C425.762482,387.430267 423.597626,389.210968 423.633575,392.098816 
	C427.401703,393.928802 430.123047,391.660492 432.485992,389.542664 
	C437.793610,384.785645 444.407654,382.297241 450.365723,378.684052 
	C451.162292,378.200928 452.146606,377.648468 453.300110,378.617889 
	C454.196136,381.528992 451.042969,383.444061 451.108826,386.381958 
	C451.199554,390.428070 451.938293,392.731232 456.841797,391.929535 
	C463.242218,390.883148 469.734070,391.298584 476.222870,391.331329 
	C483.753601,391.369324 491.308746,389.506134 498.822021,388.276947 
	C501.085846,387.906586 502.372589,385.966309 503.520691,384.062531 
	C505.698395,380.451447 509.301758,378.644592 512.907532,376.901733 
	C514.150696,376.300842 515.557495,376.234650 516.629822,377.335114 
	C517.397888,378.123352 517.513855,379.330566 516.954590,380.143036 
	C512.205383,387.042847 508.637024,394.496368 506.069824,402.458221 
	C505.932373,402.884491 505.030823,403.064362 504.336823,403.438873 
	C501.523956,400.388794 504.716217,397.213440 503.677551,394.257751 
	C502.531036,394.456116 501.353821,395.159851 500.054138,394.239990 
	C498.590485,393.204041 496.981567,392.934723 495.508087,394.365173 
	C493.823944,396.000153 494.599365,397.766174 495.340881,399.444092 
	C497.359558,404.011963 499.141266,408.724640 501.605255,413.044342 
	C504.090302,417.400909 504.588440,421.922791 505.043030,426.772430 
	C505.873016,435.626892 509.473938,443.798126 512.776794,451.986969 
	C514.214600,455.551819 515.278076,459.033142 514.578491,463.106995 
	C513.860535,467.287720 516.692749,470.481476 519.712463,472.838135 
	C523.577759,475.854614 524.624023,479.484619 524.403259,484.165161 
	C524.122986,490.107880 523.788879,496.080994 526.637573,501.781830 
	C528.526489,505.562103 526.115723,507.004944 522.556641,506.742767 
	C517.406311,506.363312 512.350708,505.580475 507.414307,503.831360 
	C496.630829,500.010406 485.768402,498.165497 475.150208,504.295807 
	C475.112244,504.252228 475.325867,504.601898 475.405060,504.573730 
	C491.881470,498.711639 505.801453,505.798492 519.597046,513.344910 
	C522.235413,514.788147 524.765869,516.344116 527.781921,516.926270 
	C531.012756,517.549927 533.169861,519.492188 534.015930,522.698669 
	C538.089294,538.137207 541.229858,553.774231 543.866638,569.515320 
	C544.057434,570.653992 544.239014,571.873352 544.039307,572.986023 
	C542.033752,584.158203 543.640320,594.855408 548.047791,605.224548 
	C549.480225,608.594482 549.599670,611.968262 548.029968,615.386780 
	C537.622070,638.052612 534.975464,662.023132 536.197144,686.619080 
	C536.473633,692.186157 535.551392,697.540833 534.107727,702.883850 
	C531.053040,714.188965 529.196594,725.559448 530.984985,737.387207 
	C532.099487,744.757385 530.397156,751.963745 527.582520,758.863892 
	C524.815857,765.646423 522.055603,772.432007 519.372803,779.247803 
	C518.803223,780.694885 518.389343,782.078308 516.486755,782.086853 
	C514.958435,780.270630 515.924255,778.529297 516.506409,776.867798 
	C522.066223,760.999756 524.890991,744.893921 523.431274,727.889343 
	C522.701355,719.385498 524.093750,710.561157 526.929993,702.307739 
	C528.547302,697.601318 528.722229,692.912903 528.739563,688.063293 
	C528.769775,679.600464 528.780579,671.183838 529.687195,662.680969 
	C530.971436,650.635986 527.357117,639.650146 517.827393,631.239075 
	C510.036987,624.363159 507.577667,615.147278 506.874847,605.253784 
	C506.148041,595.022827 501.127045,588.243591 491.279083,584.916138 
	C485.448395,582.946106 479.768707,580.517639 474.065216,578.187378 
	C471.390320,577.094543 468.903015,577.246643 466.380920,578.551270 
	C457.804230,582.987549 449.695801,588.316833 440.729156,592.008606 
	C438.503479,592.924866 438.141266,594.832581 438.035187,596.922363 
	C437.814606,601.268616 435.324127,603.493042 431.465729,605.379822 
	C423.562897,609.244568 415.914276,610.492615 407.473022,606.996704 
	C402.993286,605.141357 397.861298,605.709656 393.106903,606.379883 
	C381.241608,608.052673 369.489349,607.387085 357.824219,605.160095 
	C352.080353,604.063599 346.938934,605.746338 341.724792,607.398987 
	C337.011414,608.892883 333.106659,608.758911 329.816223,604.254822 
	C327.389099,600.932495 323.369324,600.309143 319.419067,600.446228 
	C316.427155,600.549988 313.435791,601.204773 310.459412,601.114136 
	C303.633606,600.906372 298.069763,602.774170 292.033386,606.681152 
	C283.066101,612.485107 272.316315,614.554810 261.350220,612.321045 
	C257.938629,611.626099 255.651535,610.104919 258.119171,606.135376 
	C258.948883,604.800659 259.145966,603.088440 258.226288,601.833130 
	C254.561401,596.830505 251.325363,592.070740 244.993225,588.978699 
	C233.115265,583.178589 222.605576,588.460815 211.652908,590.438171 
	C201.187454,592.327454 190.741165,590.967712 180.296753,591.065247 
	C176.541824,591.100220 176.152512,588.013489 177.985596,584.546448 
	C172.249084,585.488525 167.107941,585.363342 161.973969,585.174744 
	C159.196472,585.072693 155.800049,585.431824 154.979462,581.842407 
	C154.216187,578.503784 156.951508,576.490845 159.413940,575.298340 
	C169.181412,570.568420 179.136658,566.282898 190.351013,566.597534 
	C194.315155,566.708801 198.301773,566.890076 202.633652,563.674316 
	C199.447662,564.025940 197.220184,564.181763 195.026031,564.541077 
	C193.130920,564.851440 191.150589,565.220947 190.345657,562.999023 
	C189.588074,560.907776 191.176331,559.604980 192.696121,558.513245 
	C193.889618,557.655945 195.165237,556.912964 197.107544,555.668701 
	C192.190796,555.752747 187.979401,555.717529 183.912369,554.606079 
	C182.145859,554.123291 180.245605,553.482422 179.915314,551.325012 
	C179.605164,549.298828 181.289978,548.433167 182.688873,547.563416 
	C187.684998,544.457031 193.634827,543.063293 197.658447,538.110229 
	C199.392197,535.975952 203.015472,536.793884 205.818085,536.585327 
	C215.079712,535.896301 224.225494,533.470398 233.629684,534.817261 
	C235.973572,535.153015 238.248322,534.366577 240.474548,533.639038 
	C250.171112,530.470093 260.156555,527.514893 270.250305,527.822449 
	C279.225037,528.095825 287.885315,526.084473 296.869843,526.299133 
	C307.209625,526.546265 317.649872,523.972290 327.501556,520.101685 
	C339.820465,515.261719 352.383698,511.528870 365.797668,511.760010 
	C367.650238,511.791931 369.899017,511.208160 370.973511,514.097290 
	C368.898804,516.084961 366.167175,516.008667 363.640991,516.163574 
	C351.568329,516.903748 340.061157,519.898315 328.652985,523.842773 
	C317.654724,527.645508 306.421783,530.817322 294.513336,530.308167 
	C291.561218,530.182007 288.478638,530.551392 285.617462,531.305542 
	C274.617981,534.204651 262.964600,531.083984 252.113953,535.090820 
	C241.261612,539.098328 229.912766,538.807312 218.600494,539.156677 
	C213.574524,539.311890 207.616760,538.225769 205.707840,545.509399 
	C205.293121,547.091858 202.912704,546.851868 201.204697,546.703430 
	C196.553955,546.299561 192.561356,548.179871 188.098389,550.362854 
	C191.970581,552.586853 195.359451,551.678955 198.579742,550.540222 
	C203.284271,548.876648 207.987930,548.713135 212.833893,549.555359 
	C214.231796,549.798340 215.447952,550.054138 215.945816,551.668335 
	C215.387344,554.818787 211.570175,553.570190 210.019882,556.127258 
	C212.225708,557.447815 214.489731,556.818604 216.595688,556.377014 
	C220.993820,555.454773 225.336914,554.273193 229.716049,553.255981 
	C232.144257,552.692017 234.580399,552.036560 237.048599,551.809387 
	C239.090775,551.621338 241.997238,551.065430 242.435577,553.911316 
	C242.853271,556.623230 239.890091,556.572083 238.128876,557.027832 
	C226.046616,560.153809 213.864410,562.890625 202.825867,569.135071 
	C198.483124,571.591675 193.651184,571.940918 188.741333,570.822754 
	C187.622650,570.567932 186.356842,570.264282 185.301468,570.536438 
	C176.941864,572.692200 168.793564,575.441528 160.712097,579.636780 
	C162.766632,581.794922 165.016006,581.025269 166.977600,581.083374 
	C172.344070,581.242493 177.552032,580.083374 182.727127,578.822327 
	C184.967148,578.276428 187.387543,576.966492 189.263840,579.130554 
	C190.973450,581.102295 188.218124,582.700562 188.229309,585.335510 
	C195.931320,586.355652 203.677048,587.329468 211.605972,586.265320 
	C220.748428,585.038330 228.603775,580.663025 236.598999,576.523926 
	C241.508530,573.982239 245.126343,575.496033 247.653229,580.755981 
	C246.930695,583.143188 244.157135,581.296204 242.861847,583.283081 
	C246.469620,588.117615 255.693237,583.459900 257.393890,591.641602 
	C258.537445,597.143250 268.876617,598.717651 263.504669,607.407471 
	C270.818237,608.458130 277.390045,606.575806 284.420532,605.644409 
M435.505829,393.337555 
	C438.231079,394.322296 440.767792,393.038086 443.263855,392.433594 
	C447.098114,391.505035 447.330353,388.884979 445.657715,385.460297 
	C441.645416,387.459686 438.239929,389.718903 435.505829,393.337555 
z"/>
<path fill="#000000" opacity="1.000000" stroke="none" 
	d="
M374.328186,287.573853 
	C370.343933,288.817932 366.361450,288.854614 363.052551,291.464508 
	C372.364380,292.576111 381.240753,287.129059 391.989532,290.015930 
	C384.786102,296.748291 375.724060,298.209167 370.071991,304.766968 
	C371.784332,307.701843 376.036133,305.866760 377.758575,309.112335 
	C373.095551,311.933411 373.025818,315.248352 376.529724,319.164368 
	C378.507416,321.374664 377.302643,322.844879 374.704285,323.226318 
	C371.743439,323.661011 368.758484,323.933563 365.782562,324.263458 
	C362.526764,324.624420 359.025818,325.164612 358.492340,329.029144 
	C357.951630,332.946289 357.917480,337.506714 361.521698,339.992523 
	C367.483429,344.104340 372.522888,349.689301 381.340118,348.873138 
	C387.716675,348.282898 392.052887,353.554016 394.772705,359.293335 
	C396.383667,362.692780 392.998016,363.362732 391.300903,364.998352 
	C391.359833,367.009674 395.509491,367.491821 393.384064,370.259979 
	C391.286560,372.991760 388.301819,372.350433 385.533966,372.022339 
	C383.535645,371.785461 380.868988,372.036743 381.376099,368.531586 
	C381.658478,366.579681 379.941101,366.112518 378.621216,365.473450 
	C375.278168,363.854767 371.660065,363.298523 368.034943,362.720276 
	C365.975708,362.391815 363.792816,361.627777 364.457977,358.967133 
	C365.055115,356.578796 367.111725,355.632721 369.541382,355.971649 
	C371.402008,356.231232 373.002350,357.200592 374.377747,358.439728 
	C378.038239,361.737518 382.390320,362.105621 387.024078,361.740967 
	C391.061554,361.423248 391.044708,359.543121 389.097687,356.866943 
	C387.054504,354.058594 384.133484,352.835907 380.776611,353.352844 
	C374.802094,354.272858 370.027832,352.158295 365.792023,348.178772 
	C364.460846,346.928101 363.079315,345.611938 361.483429,344.782501 
	C353.850739,340.815247 354.310486,333.894867 354.885742,326.987671 
	C355.092865,324.501282 356.677521,322.663391 359.025085,321.761566 
	C360.876526,321.050323 362.805817,320.457703 364.753387,320.101379 
	C367.353424,319.625580 370.360413,318.868225 370.189331,316.003357 
	C369.986145,312.601166 366.479828,313.465637 364.178528,313.375732 
	C358.070038,313.137115 352.010101,312.675568 345.838379,311.674774 
	C348.299896,305.247345 350.552887,303.751007 355.903168,305.062836 
	C358.427032,305.681641 360.602905,305.183624 362.562103,303.908020 
	C366.766876,301.170349 369.626709,296.556549 375.054199,295.206024 
	C369.237762,295.185303 363.865967,296.159668 358.712830,298.193848 
	C357.081146,298.837921 355.360931,300.580322 353.872650,298.496399 
	C352.654694,296.791016 353.694214,295.026550 354.903259,293.498688 
	C359.619293,287.539154 365.196838,283.063995 373.196075,282.642578 
	C373.858765,282.607697 374.589264,282.621002 375.164703,282.349762 
	C387.986481,276.306549 401.439453,280.335968 414.572723,280.151337 
	C423.250610,280.029388 431.251617,284.471649 439.612915,286.658722 
	C444.302460,287.885406 448.938934,289.151428 453.853088,288.737061 
	C455.538422,288.594971 457.178192,288.796051 458.677002,289.690369 
	C465.388824,293.695221 471.857788,293.157684 478.118469,288.647736 
	C478.519775,288.358673 478.984222,287.972137 479.430176,287.957245 
	C490.339478,287.593475 501.070374,284.219269 512.013245,285.419952 
	C519.030884,286.189911 521.964050,283.485016 520.391296,276.591858 
	C519.677673,273.464172 517.890930,270.385651 518.951355,267.114075 
	C520.267700,266.316101 521.166443,266.752411 521.771973,267.632416 
	C523.990967,270.857025 527.325623,271.548340 530.894226,272.005707 
	C537.132812,272.805298 537.597168,273.480377 536.552734,279.407654 
	C536.194885,281.438385 536.383850,283.243103 538.759460,283.650665 
	C543.344971,284.437469 547.952576,285.132629 552.575500,285.645142 
	C554.315308,285.838013 556.588196,286.056366 557.282959,283.832703 
	C558.045898,281.391113 555.909302,280.398407 554.278137,279.250580 
	C552.708191,278.145782 550.533997,277.643433 550.119385,275.260254 
	C551.540955,272.920746 553.462158,274.390228 554.996826,274.804504 
	C560.169556,276.200836 565.348511,277.240936 570.750244,277.110809 
	C574.553284,277.019226 577.943542,278.590393 581.002747,280.652679 
	C587.546570,285.064087 594.626526,284.963654 601.573792,282.608429 
	C608.477112,280.268127 615.369995,280.758667 622.334045,281.162537 
	C624.065857,281.263000 626.071838,281.614075 626.305786,284.143250 
	C624.990417,286.066895 622.988342,285.374329 621.301392,285.320496 
	C613.117432,285.059143 605.064270,285.390839 597.084900,287.718170 
	C591.055725,289.476776 585.206604,288.344116 580.019775,284.509949 
	C574.831604,280.674774 569.064758,280.440308 563.132263,281.578735 
	C562.216614,284.254059 564.983154,285.322449 564.869751,287.729401 
	C563.421509,289.843018 561.115601,290.278839 558.514282,289.947937 
	C551.584167,289.066223 544.651917,288.199829 537.727783,287.272888 
	C532.863464,286.621704 531.662842,284.360840 532.269958,276.987610 
	C529.680420,275.700653 528.411194,276.370361 528.109009,279.406677 
	C527.354736,286.983826 523.273254,291.030640 516.096130,289.839172 
	C509.324005,288.714905 502.858826,289.623566 496.256592,290.311218 
	C492.620209,290.689972 488.952545,290.777802 485.297150,290.960175 
	C483.466370,291.051514 481.528809,290.869812 479.957092,291.938660 
	C471.885620,297.427521 463.880585,297.432678 455.103516,293.105408 
	C450.637726,290.903687 445.074005,292.038666 440.036652,290.416260 
	C428.664368,286.753540 417.210083,282.973358 404.902069,284.101379 
	C402.970306,284.278412 400.924438,283.720734 398.989380,283.259247 
	C391.940033,281.578247 385.169861,281.449799 378.912079,285.928986 
	C377.745087,286.764282 376.120789,286.960754 374.328186,287.573853 
z"/>
<path fill="#000000" opacity="1.000000" stroke="none" 
	d="
M734.697632,323.296478 
	C737.281799,327.797699 738.672058,332.140594 737.334290,336.989258 
	C736.974487,338.293335 736.699585,339.726807 734.998108,339.770508 
	C733.621826,339.805878 732.885010,338.723846 732.637756,337.562744 
	C731.288208,331.224976 729.774292,324.904694 728.849426,318.501495 
	C728.395569,315.359314 730.983643,313.059723 732.871887,310.731079 
	C734.531372,308.684662 737.013916,307.369598 738.213013,304.816742 
	C736.959778,302.762115 734.926636,303.452393 733.255554,303.429321 
	C725.926331,303.328094 718.590454,303.227325 711.266052,303.439880 
	C707.262817,303.556091 705.580505,302.348694 705.674622,298.056061 
	C705.840454,290.485443 705.475220,290.468262 697.730530,290.339539 
	C690.667786,290.222137 684.280762,292.495361 678.153564,295.587708 
	C673.863708,297.752686 670.334656,298.071198 667.435791,293.463745 
	C665.711853,290.723724 663.204346,290.349396 660.021179,291.174591 
	C655.449768,292.359711 652.222351,295.528412 648.475830,297.952332 
	C642.288757,301.955139 634.717712,300.438934 630.042053,294.174194 
	C632.021362,291.843567 634.055542,293.469910 635.753357,294.357330 
	C640.564880,296.872223 644.638428,297.009613 648.704834,292.607269 
	C653.083862,287.866577 659.356262,287.543701 665.344482,286.989075 
	C667.171265,286.819885 668.530884,287.866180 669.426392,289.403564 
	C671.448425,292.874969 674.200806,292.897522 677.550171,291.474548 
	C686.043640,287.866028 694.770020,285.525208 704.166687,285.519470 
	C708.360657,285.516907 709.803955,286.868561 710.166870,290.748627 
	C711.061523,300.314362 711.183899,300.647614 720.756104,299.720306 
	C730.752258,298.751984 740.624512,301.726044 750.599854,300.146576 
	C751.955200,299.931976 753.664124,300.026276 754.389160,301.888397 
	C753.985291,303.758118 752.332092,303.965576 750.943665,304.115784 
	C745.102966,304.747620 740.890991,308.339447 736.681519,311.860565 
	C733.059387,314.890381 731.988098,318.624847 734.697632,323.296478 
z"/>
<path fill="#000000" opacity="1.000000" stroke="none" 
	d="
M487.505585,308.867065 
	C498.811005,310.836121 509.353485,315.240082 520.635620,314.811005 
	C540.977295,314.037262 561.727661,315.405090 580.446594,304.761200 
	C581.959229,303.901062 584.055847,302.779938 585.207642,305.134796 
	C586.249084,307.264069 584.487793,308.592438 582.854126,309.443268 
	C580.671387,310.580109 578.331116,311.414459 576.075989,312.371338 
	C577.863403,317.474152 576.742432,319.531128 571.422607,320.162750 
	C568.315247,320.531677 565.101074,320.251404 561.955261,320.004608 
	C546.988647,318.830353 532.053589,318.298706 517.271057,321.714874 
	C515.267395,322.177948 513.064453,322.741302 511.513519,321.305481 
	C505.369659,315.617767 497.210754,315.534821 489.876007,313.172180 
	C488.767609,312.815094 487.546631,312.688080 486.542938,312.147736 
	C483.655212,310.593231 484.663177,309.569489 487.505585,308.867065 
z"/>
<path fill="#000000" opacity="1.000000" stroke="none" 
	d="
M612.150024,337.386047 
	C606.980774,337.958923 602.432251,340.928894 596.154785,338.706970 
	C603.177795,332.972443 610.597961,330.099762 617.906128,326.766602 
	C611.681213,324.376038 605.742310,324.664703 600.185608,328.359619 
	C591.845581,333.905182 581.704651,334.729675 572.853455,338.922699 
	C572.097900,339.280609 571.218018,338.980621 570.682190,338.049622 
	C570.243469,336.417175 571.437439,335.546234 572.639221,335.098663 
	C583.214478,331.160370 592.511902,324.100922 603.916077,322.216095 
	C609.200684,321.342651 614.696960,320.798248 619.738342,322.497986 
	C625.340881,324.386871 630.144897,323.474670 635.036194,320.861542 
	C637.677673,319.450378 640.371765,318.134430 643.071167,316.835999 
	C644.845947,315.982300 646.658142,314.931885 648.830566,316.707184 
	C647.550842,320.360596 643.799377,320.619904 641.093994,322.067047 
	C637.281250,324.106598 639.296997,327.979736 638.095215,331.585327 
	C632.245422,327.038483 627.759094,330.318909 623.118225,332.946198 
	C619.787170,334.832031 616.368530,336.570190 612.150024,337.386047 
z"/>
<path fill="#000000" opacity="1.000000" stroke="none" 
	d="
M523.599365,426.352295 
	C522.905396,422.365204 527.103516,420.784668 527.442871,417.353699 
	C526.838684,415.645844 525.310730,415.533325 523.828857,415.286255 
	C521.701050,414.931488 519.492615,414.778961 517.479431,414.078094 
	C513.495728,412.691254 511.434174,409.239563 510.691101,405.496460 
	C510.012115,402.076111 513.765625,401.698456 515.889465,400.378082 
	C517.432495,399.418823 519.208008,398.841217 520.794983,397.943390 
	C525.258179,395.418243 529.366760,393.840698 531.841370,400.440216 
	C532.567078,402.375580 535.576050,401.817719 536.619629,404.158203 
	C534.502930,408.689636 528.718567,406.623840 525.623657,410.032532 
	C534.880005,408.386932 542.573059,414.985321 551.486023,412.913361 
	C551.751160,416.266388 550.235229,417.253113 548.572144,417.230377 
	C540.208313,417.116089 534.363342,423.169525 527.122864,425.764191 
	C526.046143,426.150024 525.115479,426.965179 523.599365,426.352295 
M517.231506,404.764282 
	C519.118042,406.373505 521.023132,406.097839 522.800171,404.655853 
	C523.011230,404.484558 522.765015,403.173889 522.402832,402.967834 
	C520.414307,401.836517 519.054321,403.453064 517.231506,404.764282 
z"/>
<path fill="#000000" opacity="1.000000" stroke="none" 
	d="
M451.806305,332.998474 
	C461.129822,334.783539 469.754181,337.044189 479.204590,336.006012 
	C490.413971,334.774567 501.702820,337.337433 512.911987,338.754852 
	C514.678284,338.978210 516.093323,339.679962 516.462036,341.823578 
	C514.339844,344.335541 511.572235,343.159882 509.110718,342.800995 
	C504.009155,342.057190 499.339752,341.626312 494.204712,344.151703 
	C489.262573,346.582214 483.351776,347.054291 477.854950,348.337006 
	C476.698212,348.606934 475.543304,348.515869 474.417267,346.749298 
	C479.028717,342.663513 485.465546,344.746490 490.307922,342.074219 
	C490.054688,341.818359 489.822998,341.408447 489.646545,341.430939 
	C473.409302,343.504028 458.181885,336.962555 442.308289,335.853577 
	C436.426544,335.442596 430.726044,336.478729 424.939392,336.776978 
	C422.653717,336.894806 420.287231,337.534241 417.605194,334.056824 
	C429.541931,334.520752 440.175507,329.657501 451.806305,332.998474 
z"/>
<path fill="#000000" opacity="1.000000" stroke="none" 
	d="
M355.222351,385.880798 
	C359.019928,385.055817 362.395966,384.144287 365.819855,383.478943 
	C370.030579,382.660736 373.970947,383.253510 377.434784,386.056580 
	C376.416199,389.062592 373.703156,389.087921 371.811646,390.225037 
	C369.685516,391.503204 367.116425,392.074341 365.412720,394.017639 
	C364.241272,395.353882 363.725861,397.091064 364.634735,398.657379 
	C365.641693,400.392731 367.234802,399.432556 368.640869,398.965515 
	C370.706329,398.279388 372.656372,396.637695 375.534302,398.068939 
	C372.587952,401.502777 368.901581,402.975037 365.167633,403.994476 
	C362.612457,404.692108 361.264130,402.009949 361.406555,400.314301 
	C361.946045,393.891052 356.590271,392.819427 352.865753,390.483551 
	C350.853516,389.221588 347.860687,389.455505 347.673035,386.061157 
	C347.471741,382.419556 347.752777,378.686127 351.070648,376.661865 
	C356.456390,373.376007 362.017303,370.264648 367.810547,367.799377 
	C371.608948,366.182983 374.339966,369.856354 377.712036,371.217285 
	C376.190765,373.306946 374.236786,373.144684 372.510193,373.144409 
	C366.100037,373.143463 360.676636,376.343872 354.934998,378.453918 
	C352.823883,379.229767 351.447998,381.155945 351.565704,383.562469 
	C351.657837,385.446014 353.190613,385.872925 355.222351,385.880798 
z"/>
<path fill="#000000" opacity="1.000000" stroke="none" 
	d="
M342.246307,574.514893 
	C347.489349,573.846741 349.777954,571.395630 351.320251,566.438477 
	C354.358398,556.673706 360.876404,556.063416 371.051819,559.763550 
	C369.543335,562.291382 367.089996,562.046753 364.998688,561.647644 
	C359.504425,560.598877 356.055817,562.250244 354.499664,567.914917 
	C352.600098,574.829529 347.334930,577.830933 340.606598,577.927002 
	C331.108521,578.062561 321.681702,578.794922 312.268707,579.946777 
	C311.710693,580.015076 311.095673,579.617859 310.447357,578.671082 
	C320.652588,575.368286 331.225983,574.900757 342.246307,574.514893 
z"/>
<path fill="#000000" opacity="1.000000" stroke="none" 
	d="
M411.020813,482.102234 
	C408.451508,482.091797 406.313477,481.660461 406.347168,479.042236 
	C406.384583,476.133972 409.051514,476.528320 410.888153,476.370880 
	C413.602417,476.138275 416.493988,475.659454 418.902069,478.079987 
	C417.401672,481.624176 414.301147,481.649231 411.020813,482.102234 
z"/>
<path fill="#000000" opacity="1.000000" stroke="none" 
	d="
M408.801331,336.916687 
	C412.708282,337.928131 416.593445,337.203979 419.769592,339.498169 
	C417.298035,342.524719 406.456024,341.709869 401.415375,338.062225 
	C403.476013,335.809814 406.047516,336.979126 408.801331,336.916687 
z"/>
<path fill="#000000" opacity="1.000000" stroke="none" 
	d="
M659.014526,438.374969 
	C657.439453,436.954559 657.185608,435.754700 658.443970,434.286774 
	C663.159241,428.786041 682.688599,425.122070 689.809570,428.796936 
	C688.020203,432.881836 684.371521,434.687622 680.563599,435.086029 
	C676.298950,435.532257 672.529602,436.889740 668.747925,438.612000 
	C665.624817,440.034271 662.448364,440.842529 659.014526,438.374969 
z"/>
<path fill="#000000" opacity="1.000000" stroke="none" 
	d="
M743.848694,461.102081 
	C740.924561,461.337830 739.175659,463.451355 737.209839,465.233032 
	C736.183472,466.163177 734.955566,466.962860 733.617371,466.121582 
	C731.937561,465.065582 732.509216,463.461212 733.238586,462.135590 
	C735.325195,458.342987 737.504395,454.600403 739.699768,450.869080 
	C740.393921,449.689240 741.444519,448.509583 742.847351,448.705261 
	C748.962952,449.558380 754.259583,447.068146 759.674255,444.936371 
	C760.433044,444.637604 761.323608,444.740082 762.219421,445.641998 
	C762.721497,448.333374 760.273987,448.993073 758.552673,449.947479 
	C756.975830,450.821716 755.162109,451.735687 753.431213,451.779541 
	C747.756714,451.923187 744.469910,454.224792 744.263245,460.620392 
	C743.982971,461.000458 743.848694,461.102081 743.848694,461.102081 
z"/>
<path fill="#000000" opacity="1.000000" stroke="none" 
	d="
M640.882446,462.801544 
	C642.679382,462.754974 644.161133,463.074371 645.299133,462.588440 
	C652.092896,459.687317 656.660706,464.350830 661.962830,466.905640 
	C661.109131,469.583862 659.067505,469.265503 657.374084,469.276672 
	C649.596008,469.328156 641.817322,469.253540 634.038818,469.253540 
	C631.614990,469.253510 629.574097,468.491699 629.434204,465.830902 
	C629.273254,462.768372 631.737122,462.653229 633.953979,462.636230 
	C636.104980,462.619720 638.256897,462.736908 640.882446,462.801544 
z"/>
<path fill="#000000" opacity="1.000000" stroke="none" 
	d="
M650.565674,442.118469 
	C653.277771,441.289307 654.884338,442.162445 655.572388,444.438629 
	C656.333069,446.954865 654.254578,447.594543 652.613403,448.236206 
	C649.834473,449.322754 646.986328,450.244843 644.129822,451.112823 
	C643.166931,451.405365 642.099365,451.228790 641.570923,450.135956 
	C641.051392,449.061676 641.501709,448.092438 642.340332,447.503906 
	C644.916626,445.695953 647.574585,444.004425 650.565674,442.118469 
z"/>
<path fill="#000000" opacity="1.000000" stroke="none" 
	d="
M744.048828,460.947998 
	C746.679565,461.725525 748.979675,463.162567 747.832214,466.144501 
	C746.633606,469.259186 743.468628,469.852142 740.430481,469.839752 
	C739.309509,469.835175 738.150818,469.143982 738.081482,467.749817 
	C738.024231,466.598236 738.864563,465.930573 739.893066,465.778320 
	C742.268372,465.426575 743.063660,463.713135 743.743042,461.423767 
	C743.848694,461.102081 743.982971,461.000458 744.048828,460.947998 
z"/>
</svg>